<svg id="eJ3YvgCMnXW1" xmlns="http://www.w3.org/2000/svg" xmlns:xlink="http://www.w3.org/1999/xlink" viewBox="0 0 213.51678 213.51681" shape-rendering="geometricPrecision" text-rendering="geometricPrecision">
<style><![CDATA[
#eJ3YvgCMnXW5_tr {animation: eJ3YvgCMnXW5_tr__tr 2000ms linear 1 normal forwards}@keyframes eJ3YvgCMnXW5_tr__tr { 0% {transform: translate(105.000028px,148.499988px) rotate(-180deg);animation-timing-function: cubic-bezier(0,0,0.26,1)} 100% {transform: translate(105.000028px,148.499988px) rotate(0deg)}} #eJ3YvgCMnXW7_to {animation: eJ3YvgCMnXW7_to__to 2000ms linear 1 normal forwards}@keyframes eJ3YvgCMnXW7_to__to { 0% {transform: translate(80.765835px,114.181214px);animation-timing-function: cubic-bezier(0,0,0.58,1)} 30% {transform: translate(80.765835px,113.214314px)} 100% {transform: translate(80.765835px,113.214314px)}} #eJ3YvgCMnXW7_ts {animation: eJ3YvgCMnXW7_ts__ts 2000ms linear 1 normal forwards}@keyframes eJ3YvgCMnXW7_ts__ts { 0% {transform: scale(1.2,1.2);animation-timing-function: cubic-bezier(0,0,0.58,1)} 30% {transform: scale(1,1)} 100% {transform: scale(1,1)}} #eJ3YvgCMnXW9_to {animation: eJ3YvgCMnXW9_to__to 2000ms linear 1 normal forwards}@keyframes eJ3YvgCMnXW9_to__to { 0% {transform: translate(81.162003px,118.429323px)} 30% {transform: translate(81.162003px,118.429323px)} 50% {transform: translate(81.162003px,113.980663px)} 100% {transform: translate(81.162003px,113.980663px)}} #eJ3YvgCMnXW9_ts {animation: eJ3YvgCMnXW9_ts__ts 2000ms linear 1 normal forwards}@keyframes eJ3YvgCMnXW9_ts__ts { 0% {transform: scale(1.5,1.5)} 30% {transform: scale(1.5,1.5)} 50% {transform: scale(1,1)} 100% {transform: scale(1,1)}} #eJ3YvgCMnXW11_to {animation: eJ3YvgCMnXW11_to__to 2000ms linear 1 normal forwards}@keyframes eJ3YvgCMnXW11_to__to { 0% {transform: translate(106.550491px,173.829643px)} 50% {transform: translate(106.550491px,173.829643px);animation-timing-function: cubic-bezier(0,0,0.58,1)} 100% {transform: translate(106.550491px,173.829643px)}} #eJ3YvgCMnXW11_ts {animation: eJ3YvgCMnXW11_ts__ts 2000ms linear 1 normal forwards}@keyframes eJ3YvgCMnXW11_ts__ts { 0% {transform: scale(1,1)} 50% {transform: scale(1,1);animation-timing-function: cubic-bezier(0,0,0.58,1)} 100% {transform: scale(1,1)}} #eJ3YvgCMnXW11 {animation: eJ3YvgCMnXW11_c_o 2000ms linear 1 normal forwards}@keyframes eJ3YvgCMnXW11_c_o { 0% {opacity: 0} 50% {opacity: 0} 100% {opacity: 1}} #eJ3YvgCMnXW13_to {animation: eJ3YvgCMnXW13_to__to 2000ms linear 1 normal forwards}@keyframes eJ3YvgCMnXW13_to__to { 0% {transform: translate(104.999996px,161.331835px)} 50% {transform: translate(104.999996px,161.331835px);animation-timing-function: cubic-bezier(0,0,0.58,1)} 100% {transform: translate(106.03141px,199.010155px)}} #eJ3YvgCMnXW13_ts {animation: eJ3YvgCMnXW13_ts__ts 2000ms linear 1 normal forwards}@keyframes eJ3YvgCMnXW13_ts__ts { 0% {transform: scale(2,2)} 50% {transform: scale(2,2);animation-timing-function: cubic-bezier(0,0,0.58,1)} 100% {transform: scale(1,1)}}
]]></style>
<defs><filter id="eJ3YvgCMnXW4-filter" x="-150%" width="400%" y="-150%" height="400%"><feGaussianBlur id="eJ3YvgCMnXW4-filter-drop-shadow-0-blur" in="SourceAlpha" stdDeviation="2,2"/><feOffset id="eJ3YvgCMnXW4-filter-drop-shadow-0-offset" dx="2" dy="2" result="tmp"/><feFlood id="eJ3YvgCMnXW4-filter-drop-shadow-0-flood" flood-color="rgba(0,0,0,0.498039)"/><feComposite id="eJ3YvgCMnXW4-filter-drop-shadow-0-composite" operator="in" in2="tmp"/><feMerge id="eJ3YvgCMnXW4-filter-drop-shadow-0-merge" result="result"><feMergeNode id="eJ3YvgCMnXW4-filter-drop-shadow-0-merge-node-1"/><feMergeNode id="eJ3YvgCMnXW4-filter-drop-shadow-0-merge-node-2" in="SourceGraphic"/></feMerge></filter><filter id="eJ3YvgCMnXW5-filter" x="-150%" width="400%" y="-150%" height="400%"><feGaussianBlur id="eJ3YvgCMnXW5-filter-drop-shadow-0-blur" in="SourceAlpha" stdDeviation="2,2"/><feOffset id="eJ3YvgCMnXW5-filter-drop-shadow-0-offset" dx="3" dy="0" result="tmp"/><feFlood id="eJ3YvgCMnXW5-filter-drop-shadow-0-flood" flood-color="rgba(0,0,0,0.498039)"/><feComposite id="eJ3YvgCMnXW5-filter-drop-shadow-0-composite" operator="in" in2="tmp"/><feMerge id="eJ3YvgCMnXW5-filter-drop-shadow-0-merge" result="result"><feMergeNode id="eJ3YvgCMnXW5-filter-drop-shadow-0-merge-node-1"/><feMergeNode id="eJ3YvgCMnXW5-filter-drop-shadow-0-merge-node-2" in="SourceGraphic"/></feMerge></filter></defs><g transform="translate(.758398-42.741599)"><path d="M205,148.5c-.000002,55.174062-44.686642,99.923015-99.86065,99.9999s-99.98519-44.547352-100.138962-99.7212s44.407975-100.047165,99.581552-100.277826s100.108964,44.268509,100.41651,99.441716" transform="translate(-.000031 0)" fill="#fff" fill-opacity="0.804348" stroke-width="20"/><path d="M-92.9584,0c0-51.339507,41.618893-92.9584,92.9584-92.9584s92.9584,41.618893,92.9584,92.9584-41.618893,92.9584-92.9584,92.9584-92.9584-41.618893-92.9584-92.9584Z" transform="translate(105 148.5)" filter="url(#eJ3YvgCMnXW4-filter)" fill="none" stroke="#e83d47" stroke-width="16" stroke-linecap="round"/><g id="eJ3YvgCMnXW5_tr" transform="translate(105.000028,148.499988) rotate(-180)"><path d="M83.879658,239.02733c-42.357915-9.882252-72.200445-47.814957-71.83477-91.30885s30.841783-80.919473,73.359872-90.088128" transform="translate(-105,-148.328841)" filter="url(#eJ3YvgCMnXW5-filter)" fill="none" stroke="#0d6ab3" stroke-width="16"/></g><g transform="matrix(11.0261 0 0 12.4108-786.911-1298.860006)"><g id="eJ3YvgCMnXW7_to" transform="translate(80.765835,114.181214)"><g id="eJ3YvgCMnXW7_ts" transform="scale(1.2,1.2)"><path d="M76.520835,112.111c-.501649,0-.755639.26671-.755639.59056c0,.75564.990584.53021.990584.98424c0,.16192-.133329.28256-.330179.28256s-.422272-.0984-.546096-.20636l-.15874.32703c.17145.127.412712.2286.698462.2286.48895,0,.771528-.31751.771528-.65723c0-.73024-.996912-.581-.996912-.96517c0-.15875.12699-.22227.320665-.22227.19685,0,.387332.0476.504806.11746l.139711-.33335c-.174624-.0921-.387365-.14607-.63819-.14607Zm1.00966.0318v2.14313h1.317624v-.3461h-.901678v-.54925h.657218l.03173-.36834h-.688948v-.52701h.901678v-.35243h-1.317624Zm3.448065,0v2.14313h1.317624v-.3461h-.901725v-.54925h.657219l.03178-.36834h-.688995v-.52701h.901725v-.35243h-1.317628Zm1.698607,0l-.08253,2.14313h.380983l.02859-1.80977h.0127c.04127.2286.07936.39369.107936.51752l.292076,1.29225h.612788l.304824-1.29225c.02858-.12383.06665-.28892.104748-.51752h.0127l.04448,1.80977h.469891l-.08253-2.14313h-.701696c0,0-.279398,1.08265-.422273,1.77163h-.0095c-.123825-.69215-.358768-1.77163-.358768-1.77163h-.714419Zm2.717781,0v2.14313h.415946v-2.14313h-.415946Zm-6.207089.00016v2.14313h.412759v-.80662c.0889,0,.152396.00001.247646-.003l.352395.80961h.488965c-.149225-.29845-.304778-.5842-.454003-.88265.2413-.11112.406386-.32702.406386-.61595c0-.44767-.342926-.64453-.765201-.64453l-.688947.00001Zm.412759.32366h.209543c.250825,0,.387357.0794.387357.31753c0,.24447-.114307.3683-.387357.3683h-.209543v-.68583Z" transform="translate(-80.765835,-113.214314)" fill="#818181" stroke-width="20"/></g></g></g><g transform="matrix(9.18662 0 0 10.3402-639.572996-1045.139995)"><g id="eJ3YvgCMnXW9_to" transform="translate(81.162003,118.429323)"><g id="eJ3YvgCMnXW9_ts" transform="scale(1.5,1.5)"><path d="M86.09571,113.42698l-.305167.0856.01564.0905.31006-.0603-.020533-.1158Zm-9.357209.0265v.14358h.159249v-.14358h-.159249Zm1.004883,0v.14358h.159192v-.14358h-.159192Zm2.366739,0v.14358h.159192v-.14358h-.159192Zm1.587426,0v.17851c0,.0446.0048.0748.01451.10855-.03257-.0362-.08322-.0579-.147155-.0579v.00005c-.143548,0-.254539.11218-.254539.3076c0,.2111.107366.3076.241264.3076.076,0,.132647-.041.156773-.0772l.01811.0651h.127861v-.8323l-.156824-.00001Zm-6.008482.0181l-.03133.81421h.144736l.01086-.68757h.0048c.01568.0868.03016.14956.04101.1966l.110984.49097h.232827l.115822-.49097c.01086-.047.02529-.10975.03977-.1966h.0048l.01687.68757h.178544l-.03133-.81421h-.266633c0,0-.106147.41131-.16043.67308h-.0036c-.04704-.26298-.136298-.67308-.136298-.67308h-.271402Zm7.203945,0v.81421h.500585v-.13149h-.342573v-.20865h.249702l.01209-.13993h-.261796v-.20026h.342573v-.13388h-.500581Zm-4.127927.0699l-.155592.0507v.10255h-.08809v.11215h.08809v.29316c0,.14838.06876.1978.173705.1978.06273,0,.124211-.0193.159193-.0398l-.02408-.11579c-.02413.0121-.05794.0217-.09051.0217-.04222,0-.06272-.0265-.06272-.0676v-.28951h.158012v-.11215h-.158012l.000004-.15321Zm6.67681.14109v.00015c-.0953,0-.243683.0446-.243683.20145c0,.0844.04703.13385.106147.16642-.06635.005-.112166.041-.112166.0905c0,.0687.07357.0917.147155.10015-.0965.0145-.156774.0543-.156774.13024c0,.10856.125454.16287.249702.16287.148373,0,.281034-.076.281034-.2147c0-.22196-.375144-.14717-.375144-.2111c0-.0157.01088-.0265.02897-.0326.02533.006.05308.0108.076.0108.100122,0,.243627-.0579.243627-.20265-.0048-.0386-.03252-.0688-.05906-.0929.03981.0133.08318.0193.110929.0205l.0024-.11704c-.102534-.001-.235213-.0121-.299147-.0121Zm-7.178632.00005c-.159231,0-.22557.0784-.22557.16522c0,.20145.252121.16647.252121.27262c0,.0362-.03498.0651-.08685.0651-.05428,0-.11221-.0217-.139955-.041l-.03257.10974c.03981.0229.106191.0434.177362.0434.153198,0,.23277-.0832.23277-.19061c0-.19301-.255721-.16524-.255721-.25692c0-.0338.02655-.0543.08083-.0543v.0002c.05187,0,.10251.0121.142317.0301l.02171-.1146c-.04101-.0169-.104929-.029-.166449-.029Zm1.004826.00005c-.189387,0-.277434.12425-.277434.3064c0,.19542.108561.3088.29071.3088.09288,0,.173693-.0314.22315-.0579l-.03015-.11095c-.05187.0265-.11339.0495-.173705.0495-.09892,0-.151993-.0519-.151993-.14598h.367944v-.0688c0-.14837-.06999-.28106-.248521-.28106Zm2.983146,0c-.189386,0-.277434.12425-.277434.3064c0,.19542.10856.3088.29071.3088.09288,0,.173749-.0314.223207-.0579l-.03021-.11095c-.05187.0265-.113392.0495-.173706.0495-.09892,0-.151992-.0519-.151992-.14598h.367943v-.0688c0-.14837-.06999-.28106-.248521-.28106Zm2.173739,0c-.189387,0-.277434.12425-.277434.3064c0,.19542.10856.3088.29071.3088.09288,0,.173749-.0314.223207-.0579l-.03021-.11095c-.05187.0265-.113392.0495-.173706.0495-.09892,0-.151992-.0519-.151992-.14598h.367943v-.0688c0-.14837-.06999-.28106-.248521-.28106Zm-7.062809.00005c-.08806,0-.153205.0398-.186981.0796l-.02413-.0675h-.108566v.59107h.158011v-.44634c.02774-.0181.06277-.0362.103785-.0362.07238,0,.106147.0422.106147.13149v.35103l.16043-.00005v-.36548c0-.14958-.05912-.23763-.208694-.23763Zm3.306426,0c-.180944,0-.277434.13265-.277434.30635c0,.20266.100109.30885.277434.30885.176117,0,.27749-.1074.27749-.30885c0-.1737-.09897-.30635-.27749-.30635Zm3.164108,0c-.08806,0-.153205.0398-.186981.0796l-.02413-.0675h-.108568v.59107h.158067v-.44634c.02774-.0181.06272-.0362.103729-.0362.07238,0,.106147.0422.106147.13149v.35103l.16043-.00005v-.36548c0-.14958-.05912-.23763-.208694-.23763Zm2.593546,0c-.09288,0-.173718.0229-.232826.0483l.03983.1122c.04825-.0217.107341-.0398.177306-.0398.06032,0,.103728.0241.103728.10015v.0301h-.124204c-.142342,0-.223207.0651-.223207.17491c0,.11339.07963.18941.197838.18941.08323,0,.142366-.041.172524-.082l.02171.07.107329-.00005v-.37517c0-.15078-.07236-.22794-.240027-.22794l-.000001-.00011Zm-6.520035.002c-.06997,0-.123042.0482-.141136.0905h-.0036l-.01688-.0796h-.109747v.59107h.15683v-.42945c.02654-.0217.06392-.0398.106147-.0398.02654,0,.05428.004.07358.01l.0036-.13474c-.01327-.004-.03744-.008-.0688-.008Zm5.156941,0c-.06996,0-.123042.0482-.141136.0905h-.0036l-.01693-.0796h-.109747v.59107h.156774v-.42945c.02654-.0217.06392-.0398.106147-.0398.02654,0,.05428.004.07358.01l.0037-.13474c-.01327-.004-.03738-.008-.06874-.008Zm-8.388552.0104v.0989l.06874.0145v.47767h.15683v-.59107h-.22557Zm1.004826,0v.0989l.06874.0145v.47767h.15683v-.59107h-.22557Zm2.366739,0v.0989l.06874.0145v.47767h.15683v-.59107h-.22557Zm5.776949,0v.0989l.06874.0145v.47767h.15683v-.59107h-.22557Zm-.381218.10005c.04584,0,.104966.0181.104966.0881c0,.0748-.05672.0929-.104966.0929-.04946,0-.106148-.0181-.106148-.0929c0-.07.0603-.0881.106148-.0881Zm-4.773304.002c.07358,0,.115822.0495.115822.19176c0,.14114-.03862.19301-.115822.19301s-.114585-.0555-.114585-.19301c0-.14113.041-.19176.114585-.19176Zm-1.40894.001c.08203,0,.104966.0651.104966.14118h-.215951c0-.07.03258-.14118.110985-.14118Zm2.983147,0c.08203,0,.104966.0651.104966.14118h-.215951c0-.07.03258-.14118.110985-.14118Zm2.173739,0c.08203,0,.104965.0651.104965.14118h-.21595c0-.07.03258-.14118.110985-.14118Zm-2.826317.002c.04584,0,.08321.0145.107329.0289v.3028c-.03016.0314-.06994.0507-.109748.0507-.07479,0-.119422-.0531-.119422-.19421c0-.13751.04706-.18816.121841-.18816Zm4.82635.22679h.09771v.12299c-.02895.0229-.06751.0398-.104909.0398-.05911,0-.08809-.0326-.08809-.0868c0-.0446.03015-.076.09529-.076Zm-.99757.22424c.09288.007.138717.0265.138717.0784v.0001c0,.0615-.04707.0977-.118241.0977-.06393,0-.110985-.0374-.110985-.0893c0-.0507.03502-.082.09051-.0869Z" transform="translate(-81.162003,-113.980663)" fill="#a9a9aa" stroke-width="20"/></g></g></g><g><g id="eJ3YvgCMnXW11_to" transform="translate(106.550491,173.829643)"><g id="eJ3YvgCMnXW11_ts" transform="scale(1,1)"><path id="eJ3YvgCMnXW11" d="M108.7173,164.57831l-4.53048,1.42989.23255,1.51257l4.6023-1.00769-.30437-1.93477Zm22.88491.44235v2.98328c0,.7452.0712,1.2496.21497,1.81384-.48349-.60485-1.23577-.96738-2.18488-.96738v.001c-2.13091,0-3.77858,1.87403-3.77858,5.13922c0,3.52716,1.59403,5.13973,3.58169,5.13973c1.12817,0,1.96937-.68499,2.32751-1.28984l.26872,1.08779h1.89807v-13.90768l-2.3275.00004Zm-33.306499.001v2.39834h2.363679v-2.39831l-2.363679-.00003Zm-28.704708.30541v13.60486h2.328024v-5.12269c.501444,0,.859594.00017,1.396814-.0165l1.987475,5.13922h2.757455c-.84168-1.89458-1.718949-3.7087-2.560568-5.60328c1.360937-.7051,2.29185-2.07575,2.29185-3.90984c0-2.84178-1.933918-4.09174-4.315499-4.09174l-3.885551-.00003Zm2.328024,2.05259h1.18184c1.414673,0,2.184362.50495,2.184362,2.0159c0,1.55223-.644432,2.33784-2.184362,2.33784h-1.18184v-4.35374Zm19.768819,1.46968v.002c-1.414674,0-3.617351.74495-3.617351,3.36568c0,1.4102.698782,2.23703,1.576132,2.78123-.984779.0835-1.665532.68498-1.665532,1.51205c0,1.14788,1.092523,1.53208,2.18488,1.67277-1.432488.24226-2.328023.9076-2.328023,2.17712c0,1.81388,1.86236,2.72077,3.70675,2.72077c2.202527,0,4.172355-1.26957,4.172355-3.58738c0-3.70863-5.569169-2.45925-5.569169-3.52743c0-.26232.161412-.44275.429948-.54467.37601.10025.787862.18035,1.128096.18035c1.486254,0,3.616834-.96728,3.616834-3.38584-.07125-.64495-.483495-1.14969-.877466-1.55236.590957.22222,1.235527.32256,1.647445.34261l.03566-1.95492c-1.522059-.0167-3.491507-.20205-4.440556-.20205Zm-8.971029.001c-2.811341,0-4.118612,2.07613-4.118612,5.11959c0,3.26517,1.611587,5.15937,4.315499,5.15937c1.378751,0,2.578284-.5246,3.31246-.96738l-.447518-1.85415c-.769981.44277-1.683312.82734-2.578654.82734-1.468411,0-2.256193-.86752-2.256193-2.43913h5.461682v-1.14928c0-2.47904-1.0384-4.69636-3.688664-4.69636Zm57.104013,0c-2.81134,0-4.1181,2.07613-4.1181,5.11959c0,3.26517,1.6116,5.15937,4.3155,5.15937c1.37876,0,2.57828-.5246,3.31246-.96738l-.44752-1.85415c-.76998.44277-1.68332.82734-2.57865.82734-1.46841,0-2.2562-.86752-2.2562-2.43913h5.46169v-1.14928c0-2.47904-1.03892-4.69636-3.68918-4.69636Zm-33.23467.001c-2.68602,0-4.11861,2.21679-4.11861,5.11906c0,3.38615,1.48632,5.15989,4.11861,5.15989c2.61437,0,4.11861-1.79396,4.11861-5.15989c0-2.90227-1.4685-5.11906-4.11861-5.11906Zm10.6009,0c-1.30719,0-2.27414.66463-2.77554,1.32963l-.35811-1.12758h-1.61179v9.87588h2.34611v-7.45742c.41179-.30242.93119-.60513,1.53996-.60513c1.07443,0,1.57561.70554,1.57561,2.19728v5.86476h2.38177v-6.10712c0-2.49927-.87759-3.9703-3.09801-3.9703Zm-19.840645.20102v1.65261l1.02061.24236v7.98143h2.328025v-9.8764h-3.348635Zm-5.658569,1.67225c.680468,0,1.558044.30214,1.558044,1.47174c0,1.2498-.841845,1.55236-1.558044,1.55236-.734206,0-1.575615-.30256-1.575615-1.55236c0-1.1696.895235-1.47174,1.575615-1.47174Zm14.898314.0413c1.09225,0,1.71928.82682,1.71928,3.20445c0,2.35824-.57325,3.22513-1.71928,3.22513s-1.70119-.92754-1.70119-3.22513c0-2.35808.60881-3.20445,1.70119-3.20445Zm-23.994917.0196c1.217688,0,1.558045,1.088,1.558045,2.35852h-3.205489c0-1.1696.483523-2.35852,1.647444-2.35852Zm57.104527,0c1.21769,0,1.55804,1.088,1.55804,2.35852h-3.20549c0-1.1696.48351-2.35852,1.64745-2.35852Zm-9.68778.0413c.68046,0,1.23551.24205,1.5937.48265v5.05913c-.4477.52465-1.03836.84749-1.62936.84749-1.11022,0-1.7725-.88737-1.7725-3.24528c0-2.29759.69787-3.14399,1.80816-3.14399ZM91.347815,178.363c1.378749.11696,2.059306.44283,2.059306,1.31v.002c0,1.02758-.698365,1.63246-1.754932,1.63246-.949004,0-1.647445-.62524-1.647445-1.49242c0-.84712.519353-1.36972,1.343071-1.45159v-.00045Z" transform="translate(-106.550491,-173.829643)" opacity="0" fill="#a9a9aa" stroke-width="314.979"/></g></g></g><g transform="translate(.000001-5.84367)"><g id="eJ3YvgCMnXW13_to" transform="translate(104.999996,161.331835)"><g id="eJ3YvgCMnXW13_ts" transform="scale(2,2)"><path d="M128.98738,189.92001l-4.53048,1.43041.23307,1.51205l4.60178-1.00769-.30437-1.93477Zm-42.81496.4377v11.28665c0,1.75356.644901,2.82205,2.43551,2.82205v.006c.60877,0,1.289327-.16691,1.289327-.16691v-1.85415c-.966966,0-1.4149-.11734-1.4149-.94775v-11.14557l-2.309937-.00032Zm-20.108333.30799l3.527433,13.60486h3.527433l3.527434-13.60486h-2.542998l-2.596224,11.28717h-.0894L68.803454,190.6657h-2.739367Zm29.849857,3.5264c-.984928,0-1.915996.64479-2.309936,1.26969l-.179317-1.06763h-2.023133v13.70614h2.38125v-2.96313c0-.72515-.304374-1.81384-.304374-1.81384.555182.76525,1.12841,1.14773,2.131136,1.14773c2.041361,0,3.831808-1.75301,3.831808-5.15937c0-3.46669-1.46823-5.11959-3.527434-5.11959Zm37.729476.00052c-2.36367,0-3.34863,1.31029-3.34863,2.76159c0,3.36593,3.74241,2.78115,3.74241,4.55476c0,.60485-.51935,1.08779-1.28933,1.08779-.80576,0-1.66503-.36224-2.07687-.68472l-.4837,1.834c.59096.38263,1.5759.72502,2.6324.72502c2.27414,0,3.45612-1.38997,3.45612-3.1843c0-3.22492-3.79667-2.76144-3.79667-4.29328c0-.56475.39417-.90744,1.19993-.90744v.002c.76998,0,1.52213.20194,2.11305.50437l.32246-1.91462c-.60877-.28238-1.55792-.48472-2.47117-.48472v-.00045Zm-53.093396.00052c-1.37875,0-2.578695.38227-3.45612.80666l.591179,1.87483c.716244-.36257,1.593291-.66508,2.631881-.66508.895416,0,1.539957.40259,1.539957,1.67277v.50436h-1.844332c-2.112985,0-3.312459,1.08806-3.312459,2.92282c0,1.89459,1.181848,3.16415,2.936772,3.16415c1.235501,0,2.112888-.6849,2.560567-1.36995l.321944,1.16944l1.593701-.003v-6.26835c0-2.51948-1.074095-3.80907-3.56309-3.80907v.00042Zm23.833686,0c-1.37875,0-2.57868.38227-3.45612.80666l.59118,1.87483c.71624-.36257,1.5938-.66508,2.6324-.66508.89526,0,1.53996.40259,1.53996,1.67277v.50436h-1.84434c-2.11299,0-3.31297,1.08806-3.31297,2.92282c0,1.89459,1.18198,3.16415,2.93677,3.16415c1.2355,0,2.11291-.6849,2.56057-1.36995l.32246,1.16944l1.5937-.003v-6.26835c0-2.51948-1.07461-3.80907-3.56361-3.80907v.00042Zm15.25643,0c-1.37874,0-2.5787.38227-3.45612.80666l.59118,1.87483c.71625-.36257,1.59381-.66508,2.6324-.66508.89527,0,1.53996.40259,1.53996,1.67277v.50436h-1.84433c-2.11299,0-3.31298,1.08806-3.31298,2.92282c0,1.89459,1.18198,3.16415,2.93677,3.16415c1.2355,0,2.11291-.6849,2.56057-1.36995l.32246,1.16944l1.5937-.003v-6.26835c0-2.51948-1.07463-3.80907-3.56361-3.80907v.00042Zm22.23999,0c-2.68601,0-4.11809,2.21679-4.11809,5.11906c0,3.38615,1.4858,5.15989,4.11809,5.15989c2.61438,0,4.11861-1.79396,4.11861-5.15989c0-2.90227-1.46847-5.11906-4.11861-5.11906Zm-27.88047.0274c-1.03851,0-1.82635.80529-2.09496,1.51206h-.0537l-.25063-1.32964h-1.62936v9.87588h2.32802v-7.17527c.39397-.36258.94884-.66507,1.57562-.66507.39396,0,.80595.0666,1.09243.16691l.0532-2.25102c-.19699-.0668-.55494-.13385-1.02061-.13385Zm10.94094.17415v1.6521l1.02061.24236v7.98143h2.32802v-9.87589h-3.34863Zm16.93953,1.71308c1.09226,0,1.71928.82683,1.71928,3.20445c0,2.35824-.57323,3.22513-1.71928,3.22513s-1.70067-.92754-1.70067-3.22513c0-2.35807.6083-3.20445,1.70067-3.20445Zm-46.503621.0212c1.056478,0,1.719275.82691,1.719275,3.18431c0,2.37846-.716496,3.22512-1.773018,3.22512-.626731,0-1.181747-.42279-1.539958-.98753v-4.61678c.376009-.44277.984931-.80512,1.593701-.80512ZM80.406881,199.9582h1.45004v2.05517c-.429746.38263-1.00239.66508-1.557527.66508-.877455,0-1.307414-.54495-1.307414-1.45056c0-.7452.447935-1.26969,1.414901-1.26969Zm23.833689,0h1.45056v2.05517c-.42974.38263-1.0029.66508-1.55805.66508-.87746,0-1.30741-.54495-1.30741-1.45056c0-.7452.44794-1.26969,1.4149-1.26969Zm15.25643,0h1.45056v2.05517c-.42975.38263-1.00292.66508-1.55805.66508-.87746,0-1.30741-.54495-1.30741-1.45056c0-.7452.44793-1.26969,1.4149-1.26969Z" transform="translate(-106.03141,-199.010155)" fill="#a9a9aa" stroke-width="314.979"/></g></g></g></g></svg>
