<?xml version="1.0" encoding="UTF-8" standalone="no"?>
<!-- Created with Inkscape (http://www.inkscape.org/) -->

<svg
   width="203.91682mm"
   height="203.91682mm"
   viewBox="0 0 203.91682 203.91682"
   version="1.1"
   id="svg5"
   inkscape:version="1.2.2 (732a01da63, 2022-12-09)"
   sodipodi:docname="seremi-logo.svg"
   xml:space="preserve"
   xmlns:inkscape="http://www.inkscape.org/namespaces/inkscape"
   xmlns:sodipodi="http://sodipodi.sourceforge.net/DTD/sodipodi-0.dtd"
   xmlns="http://www.w3.org/2000/svg"
   xmlns:svg="http://www.w3.org/2000/svg"><sodipodi:namedview
     id="namedview7"
     pagecolor="#505050"
     bordercolor="#ffffff"
     borderopacity="1"
     inkscape:showpageshadow="0"
     inkscape:pageopacity="0"
     inkscape:pagecheckerboard="1"
     inkscape:deskcolor="#505050"
     inkscape:document-units="mm"
     showgrid="false"
     inkscape:zoom="0.76970804"
     inkscape:cx="415.09246"
     inkscape:cy="345.58558"
     inkscape:window-width="1920"
     inkscape:window-height="1009"
     inkscape:window-x="1912"
     inkscape:window-y="-8"
     inkscape:window-maximized="1"
     inkscape:current-layer="layer1" /><defs
     id="defs2"><rect
       x="752.18097"
       y="757.16229"
       width="801.99426"
       height="229.1412"
       id="rect1904" /></defs><g
     inkscape:label="Capa 1"
     inkscape:groupmode="layer"
     id="layer1"
     transform="translate(-3.041577,-46.541588)"><path
       style="fill:#ffffff;fill-opacity:0.804348;stroke-width:20"
       id="path458"
       sodipodi:type="arc"
       sodipodi:cx="105"
       sodipodi:cy="148.5"
       sodipodi:rx="100"
       sodipodi:ry="100"
       sodipodi:start="0"
       sodipodi:end="6.2776112"
       sodipodi:arc-type="arc"
       d="M 205,148.5 A 100,100 0 0 1 105.13935,248.4999 100,100 0 0 1 5.0003884,148.7787 100,100 0 0 1 104.58194,48.500874 100,100 0 0 1 204.99845,147.94259"
       sodipodi:open="true" /><ellipse
       style="fill:none;stroke:#e83d47;stroke-width:18;stroke-linecap:round;stroke-dasharray:none;stroke-opacity:1"
       id="path792"
       cx="105"
       cy="148.5"
       rx="92.958397"
       ry="92.958412" /><path
       style="fill:none;stroke:#0d6ab3;stroke-width:18;stroke-linecap:butt;stroke-dasharray:none;stroke-opacity:1"
       id="path792-1"
       sodipodi:type="arc"
       sodipodi:cx="105"
       sodipodi:cy="148.5"
       sodipodi:rx="92.958397"
       sodipodi:ry="92.958412"
       sodipodi:start="1.8630485"
       sodipodi:end="4.4021029"
       sodipodi:open="true"
       sodipodi:arc-type="arc"
       d="M 78.217791,237.51674 A 92.958397,92.958412 0 0 1 12.045382,149.33819 92.958397,92.958412 0 0 1 76.616913,59.9807" /><text
       xml:space="preserve"
       style="font-size:3.175px;font-family:Consolas;-inkscape-font-specification:Consolas;fill:none;stroke:#c22a2a;stroke-width:20;stroke-linecap:butt;stroke-dasharray:none;stroke-opacity:1"
       x="92.431847"
       y="110.34499"
       id="text1034"><tspan
         sodipodi:role="line"
         id="tspan1032"
         style="stroke-width:20"
         x="92.431847"
         y="110.34499" /></text><g
       aria-label="SEREMI"
       transform="matrix(10.634366,0,0,11.969785,-753.89333,-1239.1687)"
       id="text1038"
       style="font-size:3.175px;font-family:Consolas;-inkscape-font-specification:Consolas;white-space:pre;inline-size:31.6456;display:inline;fill:#818181;stroke-width:20"><path
         d="m 77.190775,113.66041 c 0,-0.73025 -0.99695,-0.58103 -0.99695,-0.9652 0,-0.15875 0.127,-0.22225 0.320675,-0.22225 0.19685,0 0.38735,0.0476 0.504825,0.11747 l 0.1397,-0.33337 c -0.174625,-0.0921 -0.38735,-0.14605 -0.638175,-0.14605 -0.50165,0 -0.75565,0.2667 -0.75565,0.59055 0,0.75565 0.9906,0.53022 0.9906,0.98425 0,0.16192 -0.13335,0.28257 -0.3302,0.28257 -0.19685,0 -0.422275,-0.0984 -0.5461,-0.20637 l -0.15875,0.32702 c 0.17145,0.127 0.41275,0.2286 0.6985,0.2286 0.48895,0 0.771525,-0.3175 0.771525,-0.65722 z"
         style="font-weight:bold;font-family:gobCL;-inkscape-font-specification:'gobCL Bold'"
         id="path339" /><path
         d="m 78.848127,114.28588 v -0.34607 h -0.9017 v -0.54928 h 0.657225 l 0.03175,-0.3683 h -0.688975 v -0.52705 h 0.9017 v -0.35242 h -1.317625 v 2.14312 z"
         style="font-weight:bold;font-family:gobCL;-inkscape-font-specification:'gobCL Bold'"
         id="path341" /><path
         d="m 79.6006,113.47943 c 0.0889,0 0.1524,0 0.24765,-0.003 l 0.352425,0.80962 h 0.48895 c -0.149225,-0.29845 -0.3048,-0.5842 -0.454025,-0.88265 0.2413,-0.11112 0.4064,-0.32702 0.4064,-0.61595 0,-0.44767 -0.3429,-0.64452 -0.765175,-0.64452 H 79.18785 v 2.14312 h 0.41275 z m 0.5969,-0.69532 c 0,0.24447 -0.1143,0.3683 -0.38735,0.3683 H 79.6006 v -0.6858 h 0.20955 c 0.250825,0 0.38735,0.0794 0.38735,0.3175 z"
         style="font-weight:bold;font-family:gobCL;-inkscape-font-specification:'gobCL Bold'"
         id="path343" /><path
         d="m 82.296172,114.28588 v -0.34607 h -0.9017 v -0.54928 h 0.657225 l 0.03175,-0.3683 h -0.688975 v -0.52705 h 0.9017 v -0.35242 h -1.317625 v 2.14312 z"
         style="font-weight:bold;font-family:gobCL;-inkscape-font-specification:'gobCL Bold'"
         id="path345" /><path
         d="m 84.966345,114.28588 -0.08255,-2.14312 H 84.18212 c 0,0 -0.2794,1.08267 -0.422275,1.77165 h -0.0095 c -0.123825,-0.69215 -0.358775,-1.77165 -0.358775,-1.77165 h -0.7144 l -0.08255,2.14312 h 0.381 l 0.02857,-1.80975 h 0.0127 c 0.04127,0.2286 0.07937,0.3937 0.10795,0.51753 l 0.2921,1.29222 h 0.612775 l 0.3048,-1.29222 c 0.02858,-0.12383 0.06668,-0.28893 0.104775,-0.51753 h 0.0127 l 0.04445,1.80975 z"
         style="font-weight:bold;font-family:gobCL;-inkscape-font-specification:'gobCL Bold'"
         id="path347" /><path
         d="m 85.810895,114.28588 v -2.14312 H 85.39497 v 2.14312 z"
         style="font-weight:bold;font-family:gobCL;-inkscape-font-specification:'gobCL Bold'"
         id="path349" /></g><g
       aria-label="Ministerio de Energía"
       transform="matrix(8.8857055,0,0,10.001534,-616.18162,-1000.3145)"
       id="text1038-4"
       style="font-weight:bold;font-size:1.20629px;font-family:gobCL;-inkscape-font-specification:'gobCL Bold';white-space:pre;inline-size:31.6456;display:inline;fill:#a9a9aa;stroke-width:20"><path
         d="m 76.558782,114.28588 -0.03136,-0.81424 h -0.26659 c 0,0 -0.106153,0.41134 -0.160436,0.67311 h -0.0036 c -0.04704,-0.26298 -0.136311,-0.67311 -0.136311,-0.67311 H 75.68907 l -0.03136,0.81424 h 0.144755 l 0.01086,-0.68758 h 0.0048 c 0.01568,0.0868 0.03016,0.14958 0.04101,0.19662 l 0.110978,0.49096 h 0.232814 l 0.115804,-0.49096 c 0.01086,-0.047 0.02533,-0.10977 0.03981,-0.19662 h 0.0048 l 0.01689,0.68758 z"
         id="path501" /><path
         d="m 76.900162,114.28588 v -0.59108 h -0.225576 v 0.0989 l 0.06876,0.0145 v 0.47769 z m -0.161643,-0.68879 h 0.159231 v -0.14355 h -0.159231 z"
         id="path503" /><path
         d="m 77.570859,114.28588 v -0.3655 c 0,-0.14958 -0.05911,-0.23764 -0.208688,-0.23764 -0.08806,0 -0.153199,0.0398 -0.186975,0.0796 l -0.02413,-0.0675 H 77.0425 v 0.59108 h 0.158024 v -0.44633 c 0.02774,-0.0181 0.06273,-0.0362 0.103741,-0.0362 0.07238,0 0.106153,0.0422 0.106153,0.13148 v 0.35103 z"
         id="path505" /><path
         d="m 77.905002,114.28588 v -0.59108 h -0.225576 v 0.0989 l 0.06876,0.0145 v 0.47769 z m -0.161643,-0.68879 h 0.15923 v -0.14355 h -0.15923 z"
         id="path507" /><path
         d="m 78.265682,113.79613 c 0.05187,0 0.102535,0.0121 0.142342,0.0301 l 0.02171,-0.11459 c -0.04101,-0.0169 -0.104948,-0.029 -0.166468,-0.029 -0.159231,0 -0.225577,0.0784 -0.225577,0.16526 0,0.20145 0.252115,0.16647 0.252115,0.27262 0,0.0362 -0.03498,0.0651 -0.08685,0.0651 -0.05428,0 -0.112185,-0.0217 -0.13993,-0.041 l -0.03257,0.10977 c 0.03981,0.0229 0.106153,0.0434 0.177324,0.0434 0.153199,0 0.232814,-0.0832 0.232814,-0.19059 0,-0.19301 -0.255733,-0.16526 -0.255733,-0.25694 0,-0.0338 0.02654,-0.0543 0.08082,-0.0543 z"
         id="path509" /><path
         d="m 78.94241,114.25814 -0.02412,-0.11581 c -0.02413,0.0121 -0.0579,0.0217 -0.09047,0.0217 -0.04222,0 -0.06273,-0.0265 -0.06273,-0.0676 v -0.28951 h 0.158024 v -0.11218 H 78.76509 v -0.1532 l -0.155612,0.0507 v 0.10254 h -0.08806 v 0.11218 h 0.08806 v 0.29313 c 0,0.14838 0.06876,0.19783 0.173706,0.19783 0.06273,0 0.124248,-0.0193 0.15923,-0.0398 z"
         id="path511" /><path
         d="m 79.516604,114.03256 v -0.0688 c 0,-0.14837 -0.06996,-0.28106 -0.248496,-0.28106 -0.189387,0 -0.277446,0.12424 -0.277446,0.30639 0,0.19542 0.108566,0.30881 0.290715,0.30881 0.09288,0 0.173706,-0.0314 0.223164,-0.0579 l -0.03016,-0.11098 c -0.05187,0.0265 -0.113391,0.0495 -0.173706,0.0495 -0.09892,0 -0.151992,-0.0519 -0.151992,-0.14596 z m -0.151993,-0.0929 h -0.215925 c 0,-0.07 0.03257,-0.14114 0.110978,-0.14114 0.08203,0 0.104947,0.0651 0.104947,0.14114 z"
         id="path513" /><path
         d="m 79.974995,113.69239 c -0.01327,-0.004 -0.0374,-0.008 -0.06876,-0.008 -0.06997,0 -0.123042,0.0482 -0.141136,0.0905 h -0.0036 l -0.01689,-0.0796 h -0.109773 v 0.59108 h 0.156818 v -0.42944 c 0.02654,-0.0217 0.06393,-0.0398 0.106154,-0.0398 0.02654,0 0.05428,0.004 0.07358,0.01 z"
         id="path515" /><path
         d="m 80.271743,114.28588 v -0.59108 h -0.225576 v 0.0989 l 0.06876,0.0145 v 0.47769 z M 80.1101,113.59709 h 0.15923 v -0.14355 H 80.1101 Z"
         id="path517" /><path
         d="m 80.668612,113.68274 c -0.180944,0 -0.277447,0.13269 -0.277447,0.30639 0,0.20266 0.100122,0.30881 0.277447,0.30881 0.176118,0 0.277446,-0.10736 0.277446,-0.30881 0,-0.1737 -0.09892,-0.30639 -0.277446,-0.30639 z m 0,0.4994 c -0.0772,0 -0.114598,-0.0555 -0.114598,-0.19301 0,-0.14113 0.04101,-0.1918 0.114598,-0.1918 0.07358,0 0.115803,0.0495 0.115803,0.1918 0,0.14114 -0.0386,0.19301 -0.115803,0.19301 z"
         id="path519" /><path
         d="m 81.564884,113.68274 c -0.143548,0 -0.254527,0.11218 -0.254527,0.3076 0,0.2111 0.10736,0.3076 0.241258,0.3076 0.076,0 0.132692,-0.041 0.156818,-0.0772 l 0.01809,0.0651 h 0.127867 v -0.83234 h -0.156818 v 0.17853 c 0,0.0446 0.0048,0.0748 0.01448,0.10857 -0.03257,-0.0362 -0.08323,-0.0579 -0.147168,-0.0579 z m 0.132692,0.44994 c -0.03016,0.0314 -0.06996,0.0507 -0.109772,0.0507 -0.07479,0 -0.119423,-0.0531 -0.119423,-0.19422 0,-0.13751 0.04705,-0.18818 0.121835,-0.18818 0.04584,0 0.08324,0.0145 0.10736,0.0289 z"
         id="path521" /><path
         d="m 82.499759,114.03256 v -0.0688 c 0,-0.14837 -0.06996,-0.28106 -0.248496,-0.28106 -0.189387,0 -0.277447,0.12424 -0.277447,0.30639 0,0.19542 0.108566,0.30881 0.290716,0.30881 0.09288,0 0.173706,-0.0314 0.223164,-0.0579 l -0.03016,-0.11098 c -0.05187,0.0265 -0.113392,0.0495 -0.173706,0.0495 -0.09892,0 -0.151993,-0.0519 -0.151993,-0.14596 z m -0.151993,-0.0929 H 82.13184 c 0,-0.07 0.03257,-0.14114 0.110979,-0.14114 0.08203,0 0.104947,0.0651 0.104947,0.14114 z"
         id="path523" /><path
         d="m 83.39362,114.28588 v -0.13148 h -0.342587 v -0.20869 h 0.249702 l 0.01206,-0.13993 H 83.05103 v -0.20025 h 0.342587 v -0.13389 h -0.500611 v 0.81424 z"
         id="path525" /><path
         d="m 84.041396,114.28588 v -0.3655 c 0,-0.14958 -0.05911,-0.23764 -0.208688,-0.23764 -0.08806,0 -0.153199,0.0398 -0.186975,0.0796 l -0.02413,-0.0675 h -0.108567 v 0.59108 h 0.158024 v -0.44633 c 0.02774,-0.0181 0.06273,-0.0362 0.103741,-0.0362 0.07238,0 0.106154,0.0422 0.106154,0.13148 v 0.35103 z"
         id="path527" /><path
         d="m 84.673493,114.03256 v -0.0688 c 0,-0.14837 -0.06996,-0.28106 -0.248495,-0.28106 -0.189388,0 -0.277447,0.12424 -0.277447,0.30639 0,0.19542 0.108566,0.30881 0.290716,0.30881 0.09288,0 0.173706,-0.0314 0.223164,-0.0579 l -0.03016,-0.11098 c -0.05187,0.0265 -0.113391,0.0495 -0.173705,0.0495 -0.09892,0 -0.151993,-0.0519 -0.151993,-0.14596 z m -0.151992,-0.0929 h -0.215926 c 0,-0.07 0.03257,-0.14114 0.110979,-0.14114 0.08203,0 0.104947,0.0651 0.104947,0.14114 z"
         id="path529" /><path
         d="m 85.131884,113.69239 c -0.01327,-0.004 -0.0374,-0.008 -0.06876,-0.008 -0.06996,0 -0.123042,0.0482 -0.141136,0.0905 h -0.0036 l -0.01689,-0.0796 H 84.79171 v 0.59108 h 0.156818 v -0.42944 c 0.02654,-0.0217 0.06393,-0.0398 0.106154,-0.0398 0.02654,0 0.05428,0.004 0.07358,0.01 z"
         id="path531" /><path
         d="m 85.441902,113.68274 c -0.0953,0 -0.24367,0.0446 -0.24367,0.20145 0,0.0844 0.04704,0.13389 0.106153,0.16646 -0.06635,0.005 -0.112185,0.041 -0.112185,0.0905 0,0.0687 0.07358,0.0917 0.147168,0.10012 -0.0965,0.0145 -0.156818,0.0543 -0.156818,0.13028 0,0.10856 0.125454,0.16285 0.249702,0.16285 0.148374,0 0.281066,-0.076 0.281066,-0.21472 0,-0.22196 -0.375157,-0.14717 -0.375157,-0.2111 0,-0.0157 0.01086,-0.0265 0.02895,-0.0326 0.02533,0.006 0.05308,0.0108 0.076,0.0108 0.100122,0 0.24367,-0.0579 0.24367,-0.20265 -0.0048,-0.0386 -0.03257,-0.0688 -0.05911,-0.0929 0.03981,0.0133 0.08323,0.0193 0.110979,0.0205 l 0.0024,-0.11701 c -0.102534,-0.001 -0.235226,-0.0121 -0.29916,-0.0121 z m 0.115804,0.64777 c 0,0.0615 -0.04704,0.0977 -0.118216,0.0977 -0.06393,0 -0.110979,-0.0374 -0.110979,-0.0893 0,-0.0507 0.03498,-0.082 0.09047,-0.0869 0.09288,0.007 0.138723,0.0265 0.138723,0.0784 z m -0.115804,-0.35465 c -0.04946,0 -0.106153,-0.0181 -0.106153,-0.0929 0,-0.07 0.06031,-0.0881 0.106153,-0.0881 0.04584,0 0.104948,0.0181 0.104948,0.0881 0,0.0748 -0.0567,0.0929 -0.104948,0.0929 z"
         id="path533" /><path
         d="m 86.116217,113.54281 -0.02051,-0.11581 -0.305191,0.0856 0.01568,0.0905 z m -0.06755,0.74307 v -0.59108 h -0.225576 v 0.0989 l 0.06876,0.0145 v 0.47769 z"
         id="path535" /><path
         d="m 86.666286,114.28588 v -0.37516 c 0,-0.15078 -0.07238,-0.22798 -0.240052,-0.22798 -0.09288,0 -0.173706,0.0229 -0.232814,0.0483 l 0.03981,0.11218 c 0.04825,-0.0217 0.10736,-0.0398 0.177325,-0.0398 0.06032,0 0.103741,0.0241 0.103741,0.10012 v 0.0301 h -0.124248 c -0.142342,0 -0.223164,0.0651 -0.223164,0.17492 0,0.11339 0.07962,0.18938 0.197832,0.18938 0.08323,0 0.142342,-0.041 0.1725,-0.082 l 0.02171,0.07 z m -0.151993,-0.1351 c -0.02895,0.0229 -0.06755,0.0398 -0.104947,0.0398 -0.05911,0 -0.08806,-0.0326 -0.08806,-0.0868 0,-0.0446 0.03016,-0.076 0.0953,-0.076 h 0.09771 z"
         id="path537" /></g><g
       aria-label="Región de Valparaíso"
       transform="matrix(14.014578,0,0,15.774471,-1000.2254,-1625.3334)"
       id="text1038-4-2"
       style="font-size:1.20629px;font-family:Consolas;-inkscape-font-specification:Consolas;text-align:center;text-anchor:middle;white-space:pre;inline-size:31.6456;display:inline;fill:#a9a9aa;stroke-width:20"><path
         d="m 76.564553,113.97948 c 0.03378,0 0.0579,0 0.09409,-10e-4 l 0.133898,0.3076 h 0.185769 c -0.0567,-0.11339 -0.115804,-0.22196 -0.1725,-0.33535 0.09168,-0.0422 0.154405,-0.12425 0.154405,-0.23402 0,-0.17008 -0.130279,-0.24487 -0.290715,-0.24487 h -0.261765 v 0.81424 h 0.156817 z m 0.226783,-0.26417 c 0,0.0929 -0.04343,0.13993 -0.147168,0.13993 h -0.07961 v -0.26056 h 0.07961 c 0.0953,0 0.147168,0.0302 0.147168,0.12063 z"
         style="font-weight:bold;font-family:gobCL;-inkscape-font-specification:'gobCL Bold'"
         id="path540" /><path
         d="m 77.540441,114.03256 v -0.0688 c 0,-0.14837 -0.06996,-0.28106 -0.248496,-0.28106 -0.189387,0 -0.277446,0.12424 -0.277446,0.30639 0,0.19542 0.108566,0.30881 0.290716,0.30881 0.09288,0 0.173705,-0.0314 0.223163,-0.0579 l -0.03016,-0.11098 c -0.05187,0.0265 -0.113391,0.0495 -0.173706,0.0495 -0.09892,0 -0.151992,-0.0519 -0.151992,-0.14596 z m -0.151992,-0.0929 h -0.215926 c 0,-0.07 0.03257,-0.14114 0.110978,-0.14114 0.08203,0 0.104948,0.0651 0.104948,0.14114 z"
         style="font-weight:bold;font-family:gobCL;-inkscape-font-specification:'gobCL Bold'"
         id="path542" /><path
         d="m 77.896298,113.68274 c -0.0953,0 -0.243671,0.0446 -0.243671,0.20145 0,0.0844 0.04705,0.13389 0.106153,0.16646 -0.06634,0.005 -0.112184,0.041 -0.112184,0.0905 0,0.0687 0.07358,0.0917 0.147167,0.10012 -0.0965,0.0145 -0.156818,0.0543 -0.156818,0.13028 0,0.10856 0.125454,0.16285 0.249702,0.16285 0.148374,0 0.281066,-0.076 0.281066,-0.21472 0,-0.22196 -0.375156,-0.14717 -0.375156,-0.2111 0,-0.0157 0.01086,-0.0265 0.02895,-0.0326 0.02533,0.006 0.05308,0.0108 0.076,0.0108 0.100122,0 0.24367,-0.0579 0.24367,-0.20265 -0.0048,-0.0386 -0.03257,-0.0688 -0.05911,-0.0929 0.03981,0.0133 0.08323,0.0193 0.110979,0.0205 l 0.0024,-0.11701 c -0.102534,-0.001 -0.235226,-0.0121 -0.299159,-0.0121 z m 0.115803,0.64777 c 0,0.0615 -0.04704,0.0977 -0.118216,0.0977 -0.06393,0 -0.110979,-0.0374 -0.110979,-0.0893 0,-0.0507 0.03498,-0.082 0.09047,-0.0869 0.09288,0.007 0.138723,0.0265 0.138723,0.0784 z m -0.115803,-0.35465 c -0.04946,0 -0.106154,-0.0181 -0.106154,-0.0929 0,-0.07 0.06032,-0.0881 0.106154,-0.0881 0.04584,0 0.104947,0.0181 0.104947,0.0881 0,0.0748 -0.0567,0.0929 -0.104947,0.0929 z"
         style="font-weight:bold;font-family:gobCL;-inkscape-font-specification:'gobCL Bold'"
         id="path544" /><path
         d="m 78.503061,114.28588 v -0.59108 h -0.225577 v 0.0989 l 0.06876,0.0145 v 0.47769 z m -0.161643,-0.68879 h 0.15923 v -0.14355 h -0.15923 z"
         style="font-weight:bold;font-family:gobCL;-inkscape-font-specification:'gobCL Bold'"
         id="path546" /><path
         d="m 78.89993,113.68274 c -0.180944,0 -0.277447,0.13269 -0.277447,0.30639 0,0.20266 0.100122,0.30881 0.277447,0.30881 0.176118,0 0.277446,-0.10736 0.277446,-0.30881 0,-0.1737 -0.09892,-0.30639 -0.277446,-0.30639 z m 0,0.4994 c -0.0772,0 -0.114598,-0.0555 -0.114598,-0.19301 0,-0.14113 0.04101,-0.1918 0.114598,-0.1918 0.07358,0 0.115803,0.0495 0.115803,0.1918 0,0.14114 -0.0386,0.19301 -0.115803,0.19301 z m 0.164055,-0.63933 -0.02051,-0.11581 -0.305191,0.0856 0.01568,0.0905 z"
         style="font-weight:bold;font-family:gobCL;-inkscape-font-specification:'gobCL Bold'"
         id="path548" /><path
         d="m 79.822742,114.28588 v -0.3655 c 0,-0.14958 -0.05911,-0.23764 -0.208689,-0.23764 -0.08806,0 -0.153198,0.0398 -0.186975,0.0796 l -0.02412,-0.0675 h -0.108566 v 0.59108 h 0.158024 v -0.44633 c 0.02774,-0.0181 0.06273,-0.0362 0.10374,-0.0362 0.07238,0 0.106154,0.0422 0.106154,0.13148 v 0.35103 z"
         style="font-weight:bold;font-family:gobCL;-inkscape-font-specification:'gobCL Bold'"
         id="path550" /><path
         d="m 80.452425,113.68274 c -0.143549,0 -0.254527,0.11218 -0.254527,0.3076 0,0.2111 0.107359,0.3076 0.241258,0.3076 0.076,0 0.132691,-0.041 0.156817,-0.0772 l 0.0181,0.0651 h 0.127866 v -0.83234 h -0.156817 v 0.17853 c 0,0.0446 0.0048,0.0748 0.01448,0.10857 -0.03257,-0.0362 -0.08323,-0.0579 -0.147167,-0.0579 z m 0.132692,0.44994 c -0.03016,0.0314 -0.06996,0.0507 -0.109773,0.0507 -0.07479,0 -0.119422,-0.0531 -0.119422,-0.19422 0,-0.13751 0.04704,-0.18818 0.121835,-0.18818 0.04584,0 0.08323,0.0145 0.10736,0.0289 z"
         style="font-weight:bold;font-family:gobCL;-inkscape-font-specification:'gobCL Bold'"
         id="path552" /><path
         d="m 81.387299,114.03256 v -0.0688 c 0,-0.14837 -0.06996,-0.28106 -0.248496,-0.28106 -0.189387,0 -0.277447,0.12424 -0.277447,0.30639 0,0.19542 0.108567,0.30881 0.290716,0.30881 0.09288,0 0.173706,-0.0314 0.223164,-0.0579 l -0.03016,-0.11098 c -0.05187,0.0265 -0.113392,0.0495 -0.173706,0.0495 -0.09892,0 -0.151993,-0.0519 -0.151993,-0.14596 z m -0.151993,-0.0929 H 81.01938 c 0,-0.07 0.03257,-0.14114 0.110979,-0.14114 0.08203,0 0.104947,0.0651 0.104947,0.14114 z"
         style="font-weight:bold;font-family:gobCL;-inkscape-font-specification:'gobCL Bold'"
         id="path554" /><path
         d="m 76.883014,114.98834 h -0.171293 l -0.174912,0.67552 h -0.006 l -0.176119,-0.67552 h -0.184562 l 0.237639,0.81424 h 0.237639 z"
         style="font-weight:bold;font-family:gobCL;-inkscape-font-specification:'gobCL Bold'"
         id="path556" /><path
         d="m 77.386036,115.80258 v -0.37515 c 0,-0.15079 -0.07238,-0.22799 -0.240052,-0.22799 -0.09288,0 -0.173706,0.0229 -0.232814,0.0483 l 0.03981,0.11218 c 0.04825,-0.0217 0.107359,-0.0398 0.177324,-0.0398 0.06032,0 0.103741,0.0241 0.103741,0.10012 v 0.0302 h -0.124248 c -0.142342,0 -0.223163,0.0651 -0.223163,0.17491 0,0.11339 0.07961,0.18938 0.197831,0.18938 0.08323,0 0.142342,-0.041 0.1725,-0.082 l 0.02171,0.07 z m -0.151993,-0.1351 c -0.02895,0.0229 -0.06755,0.0398 -0.104947,0.0398 -0.05911,0 -0.08806,-0.0326 -0.08806,-0.0868 0,-0.0446 0.03016,-0.076 0.0953,-0.076 h 0.09771 z"
         style="font-weight:bold;font-family:gobCL;-inkscape-font-specification:'gobCL Bold'"
         id="path558" /><path
         d="m 77.688813,115.81464 c 0.04101,0 0.08685,-0.01 0.08685,-0.01 v -0.11097 c -0.06514,0 -0.0953,-0.007 -0.0953,-0.0567 v -0.66708 h -0.155611 v 0.67552 c 0,0.10495 0.04343,0.16888 0.164055,0.16888 z"
         style="font-weight:bold;font-family:gobCL;-inkscape-font-specification:'gobCL Bold'"
         id="path560" /><path
         d="m 78.016925,115.74589 c 0.0374,0.0458 0.076,0.0687 0.143549,0.0687 0.137517,0 0.258146,-0.10494 0.258146,-0.30881 0,-0.20748 -0.09892,-0.30639 -0.237639,-0.30639 -0.06635,0 -0.129074,0.0386 -0.155612,0.076 l -0.01206,-0.0639 h -0.136311 v 0.82028 h 0.160437 v -0.17733 c 0,-0.0434 -0.02051,-0.10856 -0.02051,-0.10856 z m 0.02051,-0.3824 c 0.02533,-0.0265 0.06635,-0.0482 0.10736,-0.0482 0.07117,0 0.115804,0.0495 0.115804,0.19059 0,0.14235 -0.04825,0.19301 -0.119423,0.19301 -0.04222,0 -0.07961,-0.0253 -0.103741,-0.0591 z"
         style="font-weight:bold;font-family:gobCL;-inkscape-font-specification:'gobCL Bold'"
         id="path562" /><path
         d="m 78.991609,115.80258 v -0.37515 c 0,-0.15079 -0.07238,-0.22799 -0.240052,-0.22799 -0.09288,0 -0.173705,0.0229 -0.232814,0.0483 l 0.03981,0.11218 c 0.04825,-0.0217 0.10736,-0.0398 0.177325,-0.0398 0.06031,0 0.103741,0.0241 0.103741,0.10012 v 0.0302 h -0.124248 c -0.142343,0 -0.223164,0.0651 -0.223164,0.17491 0,0.11339 0.07962,0.18938 0.197832,0.18938 0.08323,0 0.142342,-0.041 0.172499,-0.082 l 0.02171,0.07 z m -0.151992,-0.1351 c -0.02895,0.0229 -0.06755,0.0398 -0.104948,0.0398 -0.05911,0 -0.08806,-0.0326 -0.08806,-0.0868 0,-0.0446 0.03016,-0.076 0.0953,-0.076 h 0.09771 z"
         style="font-weight:bold;font-family:gobCL;-inkscape-font-specification:'gobCL Bold'"
         id="path564" /><path
         d="m 79.468093,115.20909 c -0.01327,-0.004 -0.03739,-0.008 -0.06876,-0.008 -0.06996,0 -0.123041,0.0482 -0.141136,0.0905 h -0.0036 l -0.01689,-0.0796 h -0.109772 v 0.59108 h 0.156818 v -0.42944 c 0.02654,-0.0217 0.06393,-0.0398 0.106153,-0.0398 0.02654,0 0.05428,0.004 0.07358,0.01 z"
         style="font-weight:bold;font-family:gobCL;-inkscape-font-specification:'gobCL Bold'"
         id="path566" /><path
         d="m 80.019367,115.80258 v -0.37515 c 0,-0.15079 -0.07238,-0.22799 -0.240051,-0.22799 -0.09288,0 -0.173706,0.0229 -0.232814,0.0483 l 0.03981,0.11218 c 0.04825,-0.0217 0.10736,-0.0398 0.177325,-0.0398 0.06031,0 0.103741,0.0241 0.103741,0.10012 v 0.0302 H 79.74313 c -0.142342,0 -0.223164,0.0651 -0.223164,0.17491 0,0.11339 0.07962,0.18938 0.197832,0.18938 0.08323,0 0.142342,-0.041 0.172499,-0.082 l 0.02171,0.07 z m -0.151992,-0.1351 c -0.02895,0.0229 -0.06755,0.0398 -0.104947,0.0398 -0.05911,0 -0.08806,-0.0326 -0.08806,-0.0868 0,-0.0446 0.03016,-0.076 0.0953,-0.076 h 0.09771 z"
         style="font-weight:bold;font-family:gobCL;-inkscape-font-specification:'gobCL Bold'"
         id="path568" /><path
         d="m 80.429505,115.05951 -0.02051,-0.11581 -0.305191,0.0856 0.01568,0.0905 z m -0.06755,0.74307 v -0.59108 h -0.225576 v 0.0989 l 0.06876,0.0145 v 0.47769 z"
         style="font-weight:bold;font-family:gobCL;-inkscape-font-specification:'gobCL Bold'"
         id="path570" /><path
         d="m 80.725047,115.31283 c 0.05187,0 0.102534,0.0121 0.142342,0.0302 l 0.02171,-0.1146 c -0.04101,-0.0169 -0.104947,-0.029 -0.166468,-0.029 -0.15923,0 -0.225576,0.0784 -0.225576,0.16526 0,0.20145 0.252114,0.16647 0.252114,0.27262 0,0.0362 -0.03498,0.0651 -0.08685,0.0651 -0.05428,0 -0.112185,-0.0217 -0.139929,-0.041 l -0.03257,0.10977 c 0.03981,0.0229 0.106153,0.0434 0.177325,0.0434 0.153198,0 0.232814,-0.0832 0.232814,-0.19059 0,-0.19301 -0.255734,-0.16526 -0.255734,-0.25694 0,-0.0338 0.02654,-0.0543 0.08082,-0.0543 z"
         style="font-weight:bold;font-family:gobCL;-inkscape-font-specification:'gobCL Bold'"
         id="path572" /><path
         d="m 81.277527,115.19944 c -0.180944,0 -0.277447,0.13269 -0.277447,0.30639 0,0.20266 0.100122,0.30881 0.277447,0.30881 0.176118,0 0.277447,-0.10736 0.277447,-0.30881 0,-0.1737 -0.09892,-0.30639 -0.277447,-0.30639 z m 0,0.4994 c -0.0772,0 -0.114598,-0.0555 -0.114598,-0.19301 0,-0.14113 0.04101,-0.1918 0.114598,-0.1918 0.07358,0 0.115804,0.0495 0.115804,0.1918 0,0.14114 -0.0386,0.19301 -0.115804,0.19301 z"
         style="font-weight:bold;font-family:gobCL;-inkscape-font-specification:'gobCL Bold'"
         id="path574" /></g><text
       xml:space="preserve"
       transform="scale(0.26458333)"
       id="text1902"
       style="font-style:normal;font-variant:normal;font-weight:normal;font-stretch:normal;font-family:Calibri;-inkscape-font-specification:Calibri;white-space:pre;shape-inside:url(#rect1904);display:inline;fill:#000000;fill-opacity:1;stroke:none;stroke-width:75.5906;stroke-linecap:butt;stroke-dasharray:none;stroke-opacity:1" /></g></svg>
