<?xml version="1.0" encoding="UTF-8" standalone="no"?>
<!-- Created with Inkscape (http://www.inkscape.org/) -->

<svg
   width="40.53355mm"
   height="13.663707mm"
   viewBox="0 0 40.53355 13.663707"
   version="1.1"
   id="svg5"
   inkscape:version="1.2.2 (732a01da63, 2022-12-09)"
   sodipodi:docname="mi-logo.svg"
   inkscape:export-filename="mi-logo.png"
   inkscape:export-xdpi="96"
   inkscape:export-ydpi="96"
   xmlns:inkscape="http://www.inkscape.org/namespaces/inkscape"
   xmlns:sodipodi="http://sodipodi.sourceforge.net/DTD/sodipodi-0.dtd"
   xmlns="http://www.w3.org/2000/svg"
   xmlns:svg="http://www.w3.org/2000/svg">
  <sodipodi:namedview
     id="namedview7"
     pagecolor="#505050"
     bordercolor="#ffffff"
     borderopacity="1"
     inkscape:showpageshadow="0"
     inkscape:pageopacity="0"
     inkscape:pagecheckerboard="1"
     inkscape:deskcolor="#505050"
     inkscape:document-units="mm"
     showgrid="false"
     inkscape:zoom="3.1716375"
     inkscape:cx="108.77662"
     inkscape:cy="24.750622"
     inkscape:window-width="1533"
     inkscape:window-height="818"
     inkscape:window-x="2194"
     inkscape:window-y="18"
     inkscape:window-maximized="0"
     inkscape:current-layer="g7440" />
  <defs
     id="defs2">
    <filter
       inkscape:collect="always"
       style="color-interpolation-filters:sRGB"
       id="filter6526"
       x="-0.031352613"
       y="-0.023708589"
       width="1.0627052"
       height="1.0474172">
      <feGaussianBlur
         inkscape:collect="always"
         stdDeviation="0.055815325"
         id="feGaussianBlur6528" />
    </filter>
    <filter
       inkscape:collect="always"
       style="color-interpolation-filters:sRGB"
       id="filter6530"
       x="-0.011230934"
       y="-0.012882136"
       width="1.0224619"
       height="1.0257643">
      <feGaussianBlur
         inkscape:collect="always"
         stdDeviation="0.02574781"
         id="feGaussianBlur6532" />
    </filter>
    <filter
       inkscape:collect="always"
       style="color-interpolation-filters:sRGB"
       id="filter6534"
       x="-0.0095576379"
       y="-0.016119074"
       width="1.0191153"
       height="1.0322381">
      <feGaussianBlur
         inkscape:collect="always"
         stdDeviation="0.022866171"
         id="feGaussianBlur6536" />
    </filter>
    <filter
       style="color-interpolation-filters:sRGB"
       inkscape:label="Drop Shadow"
       id="filter7067"
       x="-0.10634398"
       y="-0.041437481"
       width="1.212688"
       height="1.082875">
      <feFlood
         flood-opacity="0.498039"
         flood-color="rgb(0,0,0)"
         result="flood"
         id="feFlood7057" />
      <feComposite
         in="flood"
         in2="SourceGraphic"
         operator="in"
         result="composite1"
         id="feComposite7059" />
      <feGaussianBlur
         in="composite1"
         stdDeviation="0.1"
         result="blur"
         id="feGaussianBlur7061" />
      <feOffset
         dx="0"
         dy="0"
         result="offset"
         id="feOffset7063" />
      <feComposite
         in="SourceGraphic"
         in2="offset"
         operator="over"
         result="composite2"
         id="feComposite7065" />
    </filter>
    <filter
       inkscape:collect="always"
       style="color-interpolation-filters:sRGB"
       id="filter7432"
       x="-0.047999999"
       y="-0.047999999"
       width="1.096"
       height="1.096">
      <feGaussianBlur
         inkscape:collect="always"
         stdDeviation="0.08"
         id="feGaussianBlur7434" />
    </filter>
    <filter
       style="color-interpolation-filters:sRGB"
       inkscape:label="Drop Shadow"
       id="filter7775"
       x="-0.023383948"
       y="-0.19699566"
       width="1.0467679"
       height="1.3939913">
      <feFlood
         flood-opacity="0.498039"
         flood-color="rgb(0,0,0)"
         result="flood"
         id="feFlood7765" />
      <feComposite
         in="flood"
         in2="SourceGraphic"
         operator="in"
         result="composite1"
         id="feComposite7767" />
      <feGaussianBlur
         in="composite1"
         stdDeviation="0.1"
         result="blur"
         id="feGaussianBlur7769" />
      <feOffset
         dx="0"
         dy="0"
         result="offset"
         id="feOffset7771" />
      <feComposite
         in="SourceGraphic"
         in2="offset"
         operator="over"
         result="composite2"
         id="feComposite7773" />
    </filter>
  </defs>
  <g
     inkscape:label="Capa 1"
     inkscape:groupmode="layer"
     id="layer1"
     transform="translate(-56.945903,-77.660475)">
    <text
       xml:space="preserve"
       style="font-style:normal;font-variant:normal;font-weight:bold;font-stretch:normal;font-size:3.175px;font-family:'Book Antiqua';-inkscape-font-specification:'Book Antiqua Bold';fill:#e6e6e6;fill-opacity:0.3;stroke-width:0.414999;stroke-dasharray:1.66, 1.66"
       x="71.182411"
       y="86.651955"
       id="text1649"><tspan
         sodipodi:role="line"
         id="tspan1647"
         style="font-style:normal;font-variant:normal;font-weight:bold;font-stretch:normal;font-family:'Book Antiqua';-inkscape-font-specification:'Book Antiqua Bold';stroke-width:0.415"
         x="71.182411"
         y="86.651955" /></text>
    <g
       id="egg_and_i"
       transform="matrix(2.014557,0,0,2.014557,-69.76944,-92.653588)">
      <g
         id="g7440">
        <g
           id="cotton_egg"
           transform="translate(1.3861492,0.34085637)">
          <circle
             style="fill:#ffffff;fill-opacity:0.36011904;stroke:none;stroke-width:0.291632;stroke-dasharray:none;stroke-dashoffset:0;stroke-opacity:1;filter:url(#filter7432)"
             id="cotton"
             cx="64.492783"
             cy="87.965492"
             r="2"
             transform="matrix(1.3596853,0,0,1.3596853,-23.197106,-31.639895)" />
          <path
             id="bowl_3"
             style="fill:#00fbde;fill-opacity:1;stroke:none;stroke-width:0.25812;filter:url(#filter6526)"
             d="m 65.89586,89.83578 c -1.503631,0.503133 -3.130437,-0.307932 -3.63357,-1.811564 -0.503132,-1.503632 0.307932,-3.130437 1.811564,-3.63357 1.503632,-0.503133 -0.07172,2.518694 0.431408,4.022325 0.503133,1.503632 2.89423,0.919675 1.390598,1.422809 z"
             sodipodi:nodetypes="sssss" />
          <path
             id="bowl_2"
             style="fill:#a51aa5;fill-opacity:1;stroke:none;stroke-width:0.25812;filter:url(#filter6530)"
             d="m 66.811324,89.294919 c -0.899204,1.305941 -2.686829,1.635668 -3.992771,0.736464 -1.305941,-0.899204 -1.635668,-2.686829 -0.736464,-3.99277 0.899204,-1.305942 1.456707,2.055959 2.762649,2.955162 1.305941,0.899204 2.865789,-1.004798 1.966586,0.301144 z"
             sodipodi:nodetypes="sssss" />
          <path
             id="bowl_1"
             style="fill:#500f9f;fill-opacity:1;stroke:none;stroke-width:0.25812;stroke-opacity:1;filter:url(#filter6534)"
             d="m 67.355338,88.085495 c 0,1.585576 -1.285364,2.87094 -2.87094,2.87094 -1.585576,0 -2.87094,-1.285364 -2.87094,-2.87094 0,-1.585576 2.365765,0.867247 3.951341,0.867247 1.585576,0 1.790539,-2.452823 1.790539,-0.867247 z"
             sodipodi:nodetypes="sssss" />
        </g>
      </g>
      <text
         xml:space="preserve"
         style="font-style:normal;font-variant:normal;font-weight:bold;font-stretch:normal;font-size:8.1805px;font-family:'Book Antiqua';-inkscape-font-specification:'Book Antiqua Bold';fill:#ffffff;fill-opacity:1;stroke-width:1.0692177;stroke-dasharray:4.27688081,4.27688081;filter:url(#filter7067);stroke-dashoffset:0"
         x="64.51181"
         y="90.647224"
         id="text1653-9"><tspan
           sodipodi:role="line"
           id="tspan1651-4"
           style="fill:#ffffff;fill-opacity:1;stroke-width:1.0692177;stroke-dasharray:4.27688081,4.27688081;stroke-dashoffset:0"
           x="64.51181"
           y="90.647224">i</tspan></text>
    </g>
    <g
       aria-label="nstaladoras"
       transform="matrix(3.0235492,-0.01626392,0.01535083,3.2033913,-142.14076,-190.29903)"
       id="nstaladoras"
       style="font-weight:bold;font-size:1.73744px;font-family:'Book Antiqua';-inkscape-font-specification:'Book Antiqua Bold';fill:#ffffff;fill-opacity:1;stroke-width:0.227099;stroke-dasharray:0.908392, 0.908392;filter:url(#filter7775)">
      <path
         d="m 68.646463,86.80526 v -0.561614 q 0,-0.141676 -0.105197,-0.141676 -0.0526,0 -0.100955,0.04242 -0.04751,0.04242 -0.100955,0.115377 v 0.545495 h -0.206999 v -0.861933 h 0.179004 l 0.0051,0.127253 q 0.0263,-0.03309 0.05429,-0.06023 0.02884,-0.02715 0.06193,-0.04581 0.03309,-0.01951 0.07126,-0.02969 0.03818,-0.01018 0.08568,-0.01018 0.06617,0 0.115377,0.02206 0.04921,0.02121 0.08229,0.06108 0.03309,0.03902 0.04921,0.09502 0.01697,0.05514 0.01697,0.123861 v 0.578581 z"
         style="font-family:Consolas;-inkscape-font-specification:'Consolas Bold';fill:#ffffff;fill-opacity:1"
         id="path7554" />
      <path
         d="m 69.798535,86.5516 q 0,0.07381 -0.03309,0.126406 -0.03224,0.05175 -0.08653,0.08484 -0.05345,0.03224 -0.122164,0.04666 -0.06787,0.01527 -0.139131,0.01527 -0.09502,0 -0.171368,-0.0093 -0.07635,-0.0085 -0.144221,-0.02545 V 86.60335 q 0.07975,0.03309 0.158643,0.04836 0.07975,0.01442 0.150159,0.01442 0.08144,0 0.121316,-0.02545 0.04072,-0.0263 0.04072,-0.06787 0,-0.01951 -0.0085,-0.03563 -0.0085,-0.01612 -0.03224,-0.03054 -0.02291,-0.01527 -0.06532,-0.03054 -0.04242,-0.01612 -0.111135,-0.03563 -0.06363,-0.01781 -0.111983,-0.03987 -0.04751,-0.02291 -0.0789,-0.05345 -0.03139,-0.03054 -0.04751,-0.07041 -0.01527,-0.04072 -0.01527,-0.09502 0,-0.0526 0.02375,-0.09926 0.02375,-0.04666 0.07041,-0.08144 0.04751,-0.03563 0.117922,-0.05599 0.07041,-0.02036 0.164582,-0.02036 0.08144,0 0.144221,0.0085 0.06278,0.0085 0.111135,0.01866 v 0.168824 q -0.07381,-0.02375 -0.139131,-0.03309 -0.06448,-0.01018 -0.128102,-0.01018 -0.06363,0 -0.102651,0.02291 -0.03818,0.02291 -0.03818,0.06363 0,0.01951 0.0076,0.03478 0.0076,0.01527 0.02969,0.02969 0.02291,0.01442 0.06278,0.03054 0.04072,0.01527 0.106893,0.03393 0.07466,0.02121 0.125557,0.04581 0.0509,0.02375 0.08144,0.05429 0.03139,0.03054 0.04496,0.06957 0.01357,0.03902 0.01357,0.08908 z"
         style="font-family:Consolas;-inkscape-font-specification:'Consolas Bold';fill:#ffffff;fill-opacity:1"
         id="path7556" />
      <path
         d="m 70.753787,86.796776 q -0.05599,0.01273 -0.112832,0.02036 -0.05684,0.0076 -0.107741,0.0076 -0.08484,0 -0.146766,-0.01782 -0.06108,-0.01781 -0.101804,-0.05429 -0.03987,-0.03648 -0.05939,-0.09247 -0.01866,-0.05684 -0.01866,-0.134889 v -0.420786 h -0.231602 v -0.161188 h 0.231602 v -0.220574 l 0.21209,-0.05514 v 0.275717 h 0.335102 v 0.161188 H 70.418684 V 86.51 q 0,0.07381 0.03393,0.111983 0.03393,0.03733 0.11368,0.03733 0.0509,0 0.09926,-0.0085 0.04836,-0.0085 0.08823,-0.01951 z"
         style="font-family:Consolas;-inkscape-font-specification:'Consolas Bold';fill:#ffffff;fill-opacity:1"
         id="path7558" />
      <path
         d="m 71.53852,86.80526 -0.0051,-0.112832 q -0.02715,0.02884 -0.05684,0.05345 -0.02969,0.02375 -0.06532,0.04157 -0.03563,0.01782 -0.07805,0.02715 -0.04157,0.01018 -0.09162,0.01018 -0.06617,0 -0.116225,-0.01951 -0.05005,-0.01951 -0.08399,-0.0543 -0.03393,-0.03478 -0.05175,-0.08399 -0.01697,-0.04921 -0.01697,-0.10859 0,-0.06108 0.02545,-0.112832 0.0263,-0.05175 0.0789,-0.08908 0.05345,-0.03733 0.132344,-0.05854 0.07975,-0.02121 0.186639,-0.02121 h 0.112832 v -0.05175 q 0,-0.03309 -0.0093,-0.05938 -0.0093,-0.02715 -0.03054,-0.04581 -0.02036,-0.01866 -0.05345,-0.02884 -0.03309,-0.01018 -0.08144,-0.01018 -0.07635,0 -0.151008,0.01781 -0.07381,0.01697 -0.143373,0.04836 v -0.16543 q 0.06193,-0.0246 0.142525,-0.04072 0.08144,-0.01612 0.168823,-0.01612 0.09587,0 0.164582,0.01866 0.06872,0.01781 0.112832,0.0543 0.04496,0.03648 0.06617,0.09162 0.02121,0.0543 0.02121,0.127254 v 0.588762 z m -0.02969,-0.380914 h -0.126405 q -0.0526,0 -0.08908,0.01018 -0.03648,0.01018 -0.05939,0.028 -0.02291,0.01781 -0.03393,0.04157 -0.01018,0.02291 -0.01018,0.04921 0,0.0526 0.03393,0.08059 0.03393,0.02715 0.09247,0.02715 0.04327,0 0.08993,-0.03139 0.04666,-0.03139 0.102651,-0.08993 z"
         style="font-family:Consolas;-inkscape-font-specification:'Consolas Bold';fill:#ffffff;fill-opacity:1"
         id="path7560" />
      <path
         d="M 72.231629,85.767716 H 71.98815 v -0.161188 h 0.455569 v 1.037543 h 0.248569 v 0.161189 h -0.73383 v -0.161189 h 0.273171 z"
         style="font-family:Consolas;-inkscape-font-specification:'Consolas Bold';fill:#ffffff;fill-opacity:1"
         id="path7562" />
      <path
         d="m 73.449025,86.80526 -0.0051,-0.112832 q -0.02715,0.02884 -0.05684,0.05345 -0.02969,0.02375 -0.06532,0.04157 -0.03563,0.01782 -0.07805,0.02715 -0.04157,0.01018 -0.09162,0.01018 -0.06617,0 -0.116225,-0.01951 -0.05005,-0.01951 -0.08399,-0.0543 -0.03393,-0.03478 -0.05175,-0.08399 -0.01697,-0.04921 -0.01697,-0.10859 0,-0.06108 0.02545,-0.112832 0.0263,-0.05175 0.0789,-0.08908 0.05345,-0.03733 0.132344,-0.05854 0.07975,-0.02121 0.18664,-0.02121 h 0.112831 v -0.05175 q 0,-0.03309 -0.0093,-0.05938 -0.0093,-0.02715 -0.03054,-0.04581 -0.02036,-0.01866 -0.05345,-0.02884 -0.03309,-0.01018 -0.08144,-0.01018 -0.07635,0 -0.151008,0.01781 -0.07381,0.01697 -0.143372,0.04836 v -0.16543 q 0.06193,-0.0246 0.142524,-0.04072 0.08144,-0.01612 0.168824,-0.01612 0.09586,0 0.164581,0.01866 0.06872,0.01781 0.112832,0.0543 0.04496,0.03648 0.06617,0.09162 0.02121,0.0543 0.02121,0.127254 v 0.588762 z m -0.02969,-0.380914 H 73.29293 q -0.0526,0 -0.08908,0.01018 -0.03648,0.01018 -0.05939,0.028 -0.02291,0.01781 -0.03393,0.04157 -0.01018,0.02291 -0.01018,0.04921 0,0.0526 0.03393,0.08059 0.03393,0.02715 0.09247,0.02715 0.04327,0 0.08993,-0.03139 0.04666,-0.03139 0.102651,-0.08993 z"
         style="font-family:Consolas;-inkscape-font-specification:'Consolas Bold';fill:#ffffff;fill-opacity:1"
         id="path7564" />
      <path
         d="m 74.405974,86.80526 -0.0051,-0.127254 q -0.02715,0.03309 -0.05599,0.06023 -0.02884,0.02715 -0.06193,0.04666 -0.03309,0.01866 -0.07126,0.02884 -0.03733,0.01103 -0.08314,0.01103 -0.07635,0 -0.135738,-0.03054 -0.05939,-0.03054 -0.100106,-0.08653 -0.03987,-0.05684 -0.06108,-0.137434 -0.02121,-0.08059 -0.02121,-0.179852 0,-0.11877 0.03309,-0.205303 0.03393,-0.08738 0.09332,-0.144221 0.05939,-0.05769 0.140827,-0.08484 0.08144,-0.028 0.177307,-0.028 0.03224,0 0.06448,0.0042 0.03309,0.0042 0.05854,0.01103 v -0.336799 h 0.207 v 1.198732 z m -0.378368,-0.42418 q 0,0.07126 0.0093,0.122164 0.01018,0.05005 0.02884,0.08229 0.01951,0.03224 0.04751,0.04751 0.028,0.01442 0.06363,0.01442 0.0526,0 0.100107,-0.04242 0.04751,-0.04242 0.100954,-0.116225 V 86.11215 q -0.0246,-0.0093 -0.06108,-0.01527 -0.03563,-0.0059 -0.07211,-0.0059 -0.05005,0 -0.08993,0.02036 -0.03987,0.02036 -0.06872,0.05769 -0.028,0.03733 -0.04327,0.09162 -0.01527,0.05345 -0.01527,0.120467 z"
         style="font-family:Consolas;-inkscape-font-specification:'Consolas Bold';fill:#ffffff;fill-opacity:1"
         id="path7566" />
      <path
         d="m 75.595374,86.367506 q 0,0.101803 -0.02884,0.186639 -0.02884,0.08399 -0.08314,0.144221 -0.05429,0.06023 -0.133193,0.09332 -0.0789,0.03309 -0.179852,0.03309 -0.09586,0 -0.171369,-0.028 -0.0755,-0.028 -0.128102,-0.08314 -0.0526,-0.05599 -0.08059,-0.139131 -0.028,-0.08399 -0.028,-0.195123 0,-0.102651 0.02884,-0.186639 0.02969,-0.08399 0.08399,-0.143372 0.05514,-0.05939 0.134041,-0.09162 0.0789,-0.03309 0.178155,-0.03309 0.09671,0 0.172217,0.02884 0.0755,0.028 0.128102,0.08399 0.0526,0.05599 0.07975,0.139131 0.028,0.08229 0.028,0.190881 z m -0.215483,0.0051 q 0,-0.13404 -0.0509,-0.201061 -0.05005,-0.06787 -0.148463,-0.06787 -0.05429,0 -0.09247,0.02121 -0.03818,0.02121 -0.06278,0.05854 -0.0246,0.03648 -0.03648,0.08568 -0.01103,0.0492 -0.01103,0.105196 0,0.134889 0.0543,0.203606 0.05429,0.06787 0.148462,0.06787 0.05175,0 0.08993,-0.02036 0.03818,-0.02121 0.06193,-0.05769 0.02375,-0.03733 0.03563,-0.08738 0.01188,-0.05005 0.01188,-0.107742 z"
         style="font-family:Consolas;-inkscape-font-specification:'Consolas Bold';fill:#ffffff;fill-opacity:1"
         id="path7568" />
      <path
         d="m 76.329205,86.278429 q 0.0017,-0.04836 -0.0051,-0.08229 -0.0059,-0.03393 -0.02036,-0.05599 -0.01357,-0.02206 -0.03393,-0.03224 -0.02036,-0.01018 -0.04666,-0.01018 -0.04581,0 -0.09502,0.03818 -0.04836,0.03733 -0.106893,0.123861 v 0.545495 h -0.21209 v -0.861933 h 0.187487 l 0.0076,0.125557 q 0.02121,-0.03309 0.04751,-0.05938 0.02715,-0.0263 0.05939,-0.04496 0.03309,-0.01951 0.07296,-0.02969 0.03987,-0.01018 0.08738,-0.01018 0.06532,0 0.115376,0.02291 0.0509,0.02206 0.08484,0.06617 0.03478,0.04412 0.0509,0.111135 0.01697,0.06617 0.01442,0.153554 z"
         style="font-family:Consolas;-inkscape-font-specification:'Consolas Bold';fill:#ffffff;fill-opacity:1"
         id="path7570" />
      <path
         d="m 77.270036,86.80526 -0.0051,-0.112832 q -0.02715,0.02884 -0.05684,0.05345 -0.02969,0.02375 -0.06532,0.04157 -0.03563,0.01782 -0.07805,0.02715 -0.04157,0.01018 -0.09162,0.01018 -0.06617,0 -0.116226,-0.01951 -0.05005,-0.01951 -0.08399,-0.0543 -0.03393,-0.03478 -0.05175,-0.08399 -0.01697,-0.04921 -0.01697,-0.10859 0,-0.06108 0.02545,-0.112832 0.0263,-0.05175 0.0789,-0.08908 0.05345,-0.03733 0.132344,-0.05854 0.07975,-0.02121 0.186639,-0.02121 h 0.112832 v -0.05175 q 0,-0.03309 -0.0093,-0.05938 -0.0093,-0.02715 -0.03054,-0.04581 -0.02036,-0.01866 -0.05345,-0.02884 -0.03309,-0.01018 -0.08144,-0.01018 -0.07635,0 -0.151008,0.01781 -0.07381,0.01697 -0.143373,0.04836 v -0.16543 q 0.06193,-0.0246 0.142525,-0.04072 0.08144,-0.01612 0.168823,-0.01612 0.09587,0 0.164582,0.01866 0.06872,0.01781 0.112832,0.0543 0.04496,0.03648 0.06617,0.09162 0.02121,0.0543 0.02121,0.127254 v 0.588762 z m -0.02969,-0.380914 H 77.11394 q -0.0526,0 -0.08908,0.01018 -0.03648,0.01018 -0.05939,0.028 -0.0229,0.01781 -0.03393,0.04157 -0.01018,0.02291 -0.01018,0.04921 0,0.0526 0.03393,0.08059 0.03393,0.02715 0.09247,0.02715 0.04327,0 0.08993,-0.03139 0.04666,-0.03139 0.102652,-0.08993 z"
         style="font-family:Consolas;-inkscape-font-specification:'Consolas Bold';fill:#ffffff;fill-opacity:1"
         id="path7572" />
      <path
         d="m 78.395808,86.5516 q 0,0.07381 -0.03309,0.126406 -0.03224,0.05175 -0.08653,0.08484 -0.05345,0.03224 -0.122164,0.04666 -0.06787,0.01527 -0.139131,0.01527 -0.09502,0 -0.171369,-0.0093 -0.07635,-0.0085 -0.144221,-0.02545 V 86.60335 q 0.07975,0.03309 0.158644,0.04836 0.07974,0.01442 0.150159,0.01442 0.08144,0 0.121316,-0.02545 0.04072,-0.0263 0.04072,-0.06787 0,-0.01951 -0.0085,-0.03563 -0.0085,-0.01612 -0.03224,-0.03054 -0.02291,-0.01527 -0.06532,-0.03054 -0.04242,-0.01612 -0.111135,-0.03563 -0.06363,-0.01781 -0.111984,-0.03987 -0.04751,-0.02291 -0.0789,-0.05345 -0.03139,-0.03054 -0.04751,-0.07041 -0.01527,-0.04072 -0.01527,-0.09502 0,-0.0526 0.02375,-0.09926 0.02375,-0.04666 0.07041,-0.08144 0.04751,-0.03563 0.117922,-0.05599 0.07041,-0.02036 0.164582,-0.02036 0.08144,0 0.144221,0.0085 0.06278,0.0085 0.111135,0.01866 v 0.168824 q -0.07381,-0.02375 -0.139131,-0.03309 -0.06448,-0.01018 -0.128102,-0.01018 -0.06363,0 -0.102652,0.02291 -0.03818,0.02291 -0.03818,0.06363 0,0.01951 0.0076,0.03478 0.0076,0.01527 0.02969,0.02969 0.02291,0.01442 0.06278,0.03054 0.04072,0.01527 0.106893,0.03393 0.07466,0.02121 0.125557,0.04581 0.0509,0.02375 0.08144,0.05429 0.03139,0.03054 0.04496,0.06957 0.01357,0.03902 0.01357,0.08908 z"
         style="font-family:Consolas;-inkscape-font-specification:'Consolas Bold';fill:#ffffff;fill-opacity:1"
         id="path7574" />
    </g>
  </g>
</svg>
