<?xml version="1.0" encoding="UTF-8" standalone="no"?>
<!-- Created with Inkscape (http://www.inkscape.org/) -->

<svg width="16.287855mm" height="8mm" viewBox="0 0 16.287855 8" version="1.1" id="svg5"
   inkscape:version="1.2.2 (732a01da63, 2022-12-09)" sodipodi:docname="mi-logo.svg"
   xmlns:inkscape="http://www.inkscape.org/namespaces/inkscape"
   xmlns:sodipodi="http://sodipodi.sourceforge.net/DTD/sodipodi-0.dtd" xmlns="http://www.w3.org/2000/svg"
   xmlns:svg="http://www.w3.org/2000/svg">
   <sodipodi:namedview id="namedview7" pagecolor="#505050" bordercolor="#ffffff" borderopacity="1"
      inkscape:showpageshadow="0" inkscape:pageopacity="0" inkscape:pagecheckerboard="1" inkscape:deskcolor="#505050"
      inkscape:document-units="mm" showgrid="false" inkscape:zoom="13.649418" inkscape:cx="35.019807"
      inkscape:cy="18.608852" inkscape:window-width="1920" inkscape:window-height="1009" inkscape:window-x="1912"
      inkscape:window-y="-8" inkscape:window-maximized="1" inkscape:current-layer="textual" />
   <defs id="defs2" />
   <g inkscape:label="Capa 1" inkscape:groupmode="layer" id="layer1" transform="translate(-61.839216,-83.918777)">
      <path style="fill:#65F9ED;fill-opacity:0.1;stroke-width:0.421868;stroke-dasharray:1.68748, 1.68748" id="round"
         sodipodi:type="arc" sodipodi:cx="66.665443" sodipodi:cy="87.918777" sodipodi:rx="4" sodipodi:ry="4"
         sodipodi:start="0" sodipodi:end="6.2828201" sodipodi:arc-type="arc"
         d="m 70.665443,87.918777 a 4,4 0 0 1 -3.999634,4 4,4 0 0 1 -4.000366,-3.999269 4,4 0 0 1 3.998905,-4.00073 4,4 0 0 1 4.001095,3.998539"
         sodipodi:open="true" />
      <g id="mi">
         <g aria-label="m " transform="matrix(0.95061366,0,0,1.0519521,-0.32199402,0.11862938)" id="text790"
            style="font-weight:bold;font-size:10.2026px;font-family:Bahnschrift;-inkscape-font-specification:'Bahnschrift Bold';fill:#ffffff;stroke-width:1.33356;stroke-dasharray:5.33427, 5.33427">
            <path
               d="m 71.483269,84.486261 h 0.592826 q 0.627699,0 0.627699,0.443375 0,0.303886 -0.224178,0.473265 -0.219196,0.169379 -0.612754,0.169379 H 70.85557 q -0.328795,0 -0.533046,-0.174361 -0.204252,-0.174361 -0.204252,-0.45832 0,-0.194288 0.134507,-0.528064 l 0.468284,-1.140818 q 0.03985,-0.09964 0.03985,-0.184324 0,-0.323813 -0.328795,-0.323813 -0.254069,0 -0.503156,0.22916 -0.249087,0.229159 -0.398539,0.607772 l -0.557954,1.374959 q -0.273996,0.667553 -0.797078,0.667553 -0.204252,0 -0.348722,-0.134507 -0.14447,-0.134507 -0.14447,-0.318831 0,-0.14447 0.07473,-0.338758 l 0.0548,-0.134507 0.562936,-1.389905 q 0.07473,-0.184324 0.07473,-0.288941 0,-0.109598 -0.09963,-0.189306 -0.09963,-0.08469 -0.234141,-0.08469 -0.538028,0 -0.851877,0.777151 l -0.582864,1.429759 q -0.273995,0.672534 -0.792096,0.672534 -0.204251,0 -0.353704,-0.129525 -0.14447,-0.134507 -0.14447,-0.323813 0,-0.149452 0.07473,-0.338758 l 0.0548,-0.134507 0.991366,-2.441052 q 0.209233,-0.513119 0.627699,-0.513119 0.433411,0 0.538028,0.408503 0.338758,-0.288941 0.547991,-0.383594 0.214215,-0.09465 0.523082,-0.09465 0.667553,0 1.00133,0.582863 0.557954,-0.582863 1.255398,-0.582863 0.478247,0 0.797078,0.278977 0.323813,0.273996 0.323813,0.677517 0,0.254068 -0.109598,0.523082 z"
               style="font-family:'Harlow Solid Italic';-inkscape-font-specification:'Harlow Solid Italic,  Bold'"
               id="path1859" />
         </g>
         <g aria-label="i" transform="matrix(0.90375171,0,0,1.0899968,9.7212238,-14.633031)" id="text1004"
            style="font-weight:bold;font-size:7.91804px;font-family:'Harlow Solid Italic';-inkscape-font-specification:'Harlow Solid Italic,  Bold';fill:#ffffff;stroke-width:1.03496;stroke-dasharray:4.13983, 4.13983">
            <path
               d="m 65.310155,95.239395 c 0,0 0.07999,0.349006 -0.269258,0.551325 -0.213614,0.123744 -0.488306,0.183767 -0.736932,0.152329 -0.147105,-0.09279 -0.220656,-0.219086 -0.220656,-0.37889 0,-0.08506 0.03089,-0.193312 0.09267,-0.324764 l 0.728164,-1.569689 0.04855,-0.108255 c 0.135335,-0.291256 0.353048,-0.436884 0.653141,-0.436884 0.123567,0 0.229481,0.03608 0.317743,0.108255 0.0912,0.07217 0.136807,0.158515 0.136807,0.259037 0,0.08248 -0.03973,0.208777 -0.119155,0.378891 z m 0.582532,-3.348155 c 0.170639,0 0.314801,0.05284 0.432484,0.158515 0.120626,0.1031 0.180938,0.229397 0.180938,0.378891 0,0.149494 -0.06032,0.27708 -0.180938,0.382757 -0.117683,0.103099 -0.261845,0.154649 -0.432484,0.154649 -0.170642,0 -0.316274,-0.05155 -0.436899,-0.154649 -0.117683,-0.105677 -0.176524,-0.233263 -0.176524,-0.382757 0,-0.149494 0.05884,-0.275791 0.176524,-0.378891 0.120625,-0.105677 0.266257,-0.158515 0.436899,-0.158515 z"
               id="path1803" sodipodi:nodetypes="cscscccscsccscssscsss" style="stroke-width:1.10574" />
         </g>
      </g>
      <g id="textual">
         <g aria-label="mujeres " transform="matrix(0.85832025,0,0,1.1650663,-0.69566862,-0.3324151)" id="mujeres"
            style="font-weight:bold;font-size:3.18742px;font-family:Bahnschrift;-inkscape-font-specification:'Bahnschrift Bold';fill:#ffffff;stroke-width:0.416621;stroke-dasharray:1.66649, 1.66649">
            <path
               d="m 84.039813,75.260949 h 0.209204 q 0.221511,0 0.221511,0.138516 0,0.09494 -0.07912,0.147854 -0.07735,0.05292 -0.216237,0.05292 h -0.356878 q -0.11603,0 -0.188108,-0.05447 -0.07208,-0.05447 -0.07208,-0.143184 0,-0.0607 0.04747,-0.164974 l 0.165254,-0.356406 q 0.01406,-0.03113 0.01406,-0.05759 0,-0.101164 -0.11603,-0.101164 -0.08966,0 -0.17756,0.07159 -0.0879,0.07159 -0.140642,0.189875 l -0.196898,0.429555 q -0.09669,0.208552 -0.281284,0.208552 -0.07208,0 -0.123061,-0.04202 -0.05099,-0.04202 -0.05099,-0.09961 0,-0.04513 0.02638,-0.105832 l 0.01934,-0.04202 0.198657,-0.434224 q 0.02638,-0.05759 0.02638,-0.09027 0,-0.03424 -0.03516,-0.05914 -0.03516,-0.02646 -0.08263,-0.02646 -0.189865,0 -0.300621,0.242792 l -0.205689,0.446675 q -0.09669,0.210108 -0.279526,0.210108 -0.07208,0 -0.124819,-0.04046 -0.05098,-0.04202 -0.05098,-0.101164 0,-0.04669 0.02638,-0.105832 l 0.01934,-0.04202 0.349846,-0.762616 q 0.07384,-0.160304 0.221511,-0.160304 0.152948,0 0.189867,0.127621 0.119545,-0.09027 0.193382,-0.11984 0.07559,-0.02957 0.184593,-0.02957 0.235575,0 0.353362,0.182093 0.196898,-0.182093 0.443023,-0.182093 0.16877,0 0.281283,0.08716 0.114271,0.0856 0.114271,0.211664 0,0.07937 -0.03868,0.163418 z"
               style="font-family:'Harlow Solid Italic';-inkscape-font-specification:'Harlow Solid Italic,  Bold';fill:#ffffff;stroke-width:0.442791"
               id="path1763" />
            <path
               d="m 85.626902,75.260949 h 0.180537 q 0.107389,0 0.152523,0.03268 0.04514,0.03113 0.04514,0.104276 0,0.09494 -0.07004,0.14941 -0.06848,0.05292 -0.192989,0.05292 h -0.278588 q -0.130734,0 -0.174312,-0.101163 -0.0856,0.101163 -0.214777,0.101163 h -0.227228 q -0.13696,0 -0.227228,-0.0856 -0.09027,-0.0856 -0.09027,-0.216333 0,-0.07471 0.04046,-0.174312 l 0.21167,-0.519824 q 0.08871,-0.216333 0.242792,-0.216333 0.06692,0 0.113614,0.04358 0.04669,0.04202 0.04669,0.104276 0,0.04669 -0.0249,0.107388 l -0.01712,0.04202 -0.163418,0.399984 -0.01712,0.04669 q -0.01401,0.04047 -0.01556,0.0607 -0.0031,0.07004 0.09027,0.07004 0.192989,0 0.256799,-0.155635 l 0.194545,-0.479358 q 0.08716,-0.21789 0.245905,-0.21789 0.06537,0 0.112057,0.04358 0.04669,0.04358 0.04669,0.104276 0,0.04825 -0.04046,0.14941 z"
               style="font-family:'Harlow Solid Italic';-inkscape-font-specification:'Harlow Solid Italic,  Bold'"
               id="path1765" />
            <path
               d="m 86.523364,75.664046 h 0.171199 c 0.130734,0 0.196101,0.04617 0.196101,0.138515 0,0.06225 -0.02335,0.111019 -0.07004,0.146298 -0.04565,0.03631 -0.109996,0.05338 -0.192988,0.05447 l -0.222905,0.0029 c 0,0 -0.03191,0.160871 -0.09061,0.222559 -0.0587,0.06169 -0.187724,0.01268 -0.259316,0.155883 -0.07159,0.143184 -0.174212,0.362571 -0.441905,0.362571 -0.160824,0 -0.295708,-0.04928 -0.404653,-0.147854 -0.108945,-0.09753 -0.163418,-0.219446 -0.163418,-0.365744 0,-0.08612 0.02127,-0.17068 0.06381,-0.253686 0.04254,-0.08197 0.09857,-0.147335 0.168086,-0.196101 0.113095,-0.07989 0.287926,-0.119839 0.524493,-0.119839 h 0.323722 l 0.353293,-0.87156 h -0.168086 c -0.131772,0 -0.197658,-0.04617 -0.197658,-0.138516 0,-0.06329 0.02283,-0.112578 0.06848,-0.147854 0.04669,-0.03528 0.11206,-0.05292 0.196101,-0.05292 h 0.371969 c 0.125547,0 0.18832,0.0524 0.18832,0.157192 0,0.04047 -0.01089,0.08716 -0.03268,0.140072 z m -0.536944,0.339286 h -0.21789 c -0.237604,0 -0.356406,0.07678 -0.356406,0.23034 0,0.04981 0.0166,0.09027 0.0498,0.121396 0.0332,0.03217 0.07626,0.04825 0.129178,0.04825 0.07574,0 0.143185,-0.02957 0.202326,-0.08871 0.05811,-0.05811 0.122436,-0.161864 0.192988,-0.311271 z m 0.92292,-2.090188 c 0.06018,0 0.111021,0.02127 0.152523,0.06381 0.04254,0.0415 0.06381,0.09234 0.06381,0.152523 0,0.06018 -0.02127,0.11154 -0.06381,0.15408 -0.0415,0.0415 -0.09234,0.06225 -0.152523,0.06225 -0.06018,0 -0.11154,-0.02075 -0.154079,-0.06225 -0.0415,-0.04254 -0.06225,-0.0939 -0.06225,-0.15408 0,-0.06018 0.02075,-0.111021 0.06225,-0.152523 0.04254,-0.04254 0.0939,-0.06381 0.154079,-0.06381 z"
               style="font-family:'Harlow Solid Italic';-inkscape-font-specification:'Harlow Solid Italic,  Bold'"
               id="path1767" sodipodi:nodetypes="csscsczzscsccsccsscssscccsscssscscssscsss" />
            <path
               d="m 87.371579,75.144222 q 0,0.116727 0.175868,0.116727 h 0.462238 q 0.196101,0 0.196101,0.138516 0,0.09494 -0.07004,0.147854 -0.06848,0.05292 -0.192988,0.05292 h -0.440449 q -0.245905,0 -0.375083,-0.121396 -0.127621,-0.121396 -0.127621,-0.354849 0,-0.300377 0.202327,-0.518267 0.203882,-0.21789 0.484027,-0.21789 0.203883,0 0.326835,0.107388 0.124508,0.105833 0.124508,0.280145 0,0.210108 -0.171199,0.311271 -0.09494,0.05759 -0.283257,0.05759 z m 0.07471,-0.283257 h 0.171199 q 0.16653,0 0.161861,-0.07315 -0.0047,-0.08249 -0.107389,-0.08249 -0.143184,0 -0.225671,0.155636 z"
               style="font-family:'Harlow Solid Italic';-inkscape-font-specification:'Harlow Solid Italic,  Bold'"
               id="path1769" />
            <path
               d="m 88.654017,74.750464 -0.05292,0.130734 q -0.07159,0.174312 -0.186763,0.174312 -0.07004,0 -0.116727,-0.04202 -0.04669,-0.04202 -0.04669,-0.104276 0,-0.0358 0.03424,-0.121396 l 0.175869,-0.434223 q 0.06381,-0.157192 0.180537,-0.157192 0.11517,0 0.141629,0.108945 l 0.01245,0.04825 q 0.0093,0.03735 0.02802,0.04669 0.01868,0.0093 0.09183,0.0093 h 0.364188 q 0.203882,0 0.203882,0.143184 0,0.197658 -0.258355,0.197658 l -0.01712,0.01556 q -0.247461,0.236567 -0.247461,0.365744 0,0.129178 0.143185,0.129178 h 0.196101 q 0.197658,0 0.197658,0.13696 0,0.09649 -0.07004,0.14941 -0.06848,0.05292 -0.192988,0.05292 h -0.305046 q -0.155636,0 -0.255242,-0.107389 -0.09805,-0.107388 -0.09805,-0.278588 0,-0.108945 0.05292,-0.211664 0.05292,-0.10272 0.186763,-0.25213 z"
               style="font-family:'Harlow Solid Italic';-inkscape-font-specification:'Harlow Solid Italic,  Bold'"
               id="path1771" />
            <path
               d="m 89.939568,75.144222 q 0,0.116727 0.175869,0.116727 h 0.462238 q 0.196101,0 0.196101,0.138516 0,0.09494 -0.07004,0.147854 -0.06848,0.05292 -0.192989,0.05292 h -0.440449 q -0.245904,0 -0.375082,-0.121396 -0.127621,-0.121396 -0.127621,-0.354849 0,-0.300377 0.202326,-0.518267 0.203883,-0.21789 0.484028,-0.21789 0.203882,0 0.326835,0.107388 0.124508,0.105833 0.124508,0.280145 0,0.210108 -0.171199,0.311271 -0.09494,0.05759 -0.283257,0.05759 z m 0.07471,-0.283257 h 0.1712 q 0.16653,0 0.161861,-0.07315 -0.0047,-0.08249 -0.107389,-0.08249 -0.143185,0 -0.225672,0.155636 z"
               style="font-family:'Harlow Solid Italic';-inkscape-font-specification:'Harlow Solid Italic,  Bold'"
               id="path1773" />
            <path
               d="m 91.351184,74.834507 -0.02957,0.07159 q -0.06848,0.154079 -0.194545,0.154079 -0.06381,0 -0.115171,-0.04358 -0.0498,-0.04513 -0.0498,-0.10272 0,-0.05447 0.04513,-0.144741 l 0.206996,-0.420216 q 0.07626,-0.150967 0.189876,-0.150967 0.0607,0 0.104275,0.04046 0.04358,0.03891 0.04358,0.09338 0,0.01401 -0.0093,0.0607 -0.0062,0.03424 -0.0062,0.0607 0,0.09805 0.07315,0.20077 l 0.08871,0.122952 q 0.135403,0.188319 0.135403,0.364188 0,0.196101 -0.146297,0.328391 -0.146298,0.130734 -0.364188,0.130734 h -0.325279 q -0.197657,0 -0.197657,-0.136959 0,-0.09494 0.07004,-0.147854 0.07004,-0.05447 0.192988,-0.05447 h 0.180538 q 0.216333,0 0.216333,-0.157192 0,-0.05759 -0.04046,-0.135403 z"
               style="font-family:'Harlow Solid Italic';-inkscape-font-specification:'Harlow Solid Italic,  Bold'"
               id="path1775" />
         </g>
         <g aria-label="instaladoras" transform="matrix(0.97966912,0,0,1.0207528,-0.92381739,-0.47066925)" id="text1761"
            style="font-weight:bold;font-size:1.8658px;font-family:'Harlow Solid Italic';-inkscape-font-specification:'Harlow Solid Italic,  Bold';fill:#ffffff;stroke-width:0.243876;stroke-dasharray:0.975503, 0.975503">
            <path
               d="m 72.041618,88.346614 h 0.102947 q 0.114791,0 0.114791,0.08108 0,0.05557 -0.041,0.08655 -0.04009,0.03097 -0.112968,0.03097 h -0.144855 q -0.08017,0 -0.126634,-0.0328 -0.04555,-0.0328 -0.04555,-0.08928 0,-0.03006 0.01913,-0.07653 l 0.150321,-0.369881 0.01002,-0.02551 q 0.04191,-0.102946 0.134833,-0.102946 0.03826,0 0.0656,0.02551 0.02824,0.02551 0.02824,0.06104 0,0.02915 -0.0246,0.08928 z m 0.120257,-0.788957 q 0.05284,0 0.08928,0.03735 0.03735,0.03644 0.03735,0.08928 0,0.05284 -0.03735,0.09019 -0.03644,0.03644 -0.08928,0.03644 -0.05284,0 -0.09019,-0.03644 -0.03644,-0.03735 -0.03644,-0.09019 0,-0.05284 0.03644,-0.08928 0.03735,-0.03735 0.09019,-0.03735 z"
               id="path1778" />
            <path
               d="m 72.969052,88.346614 h 0.109324 q 0.115702,0 0.115702,0.08108 0,0.05557 -0.041,0.08655 -0.041,0.03097 -0.112968,0.03097 h -0.190407 q -0.05557,0 -0.09384,-0.03371 -0.03735,-0.03371 -0.03735,-0.08473 0,-0.03097 0.02551,-0.09293 l 0.08017,-0.198605 q 0.01275,-0.03098 0.01367,-0.05011 9.11e-4,-0.02187 -0.01822,-0.03735 -0.01822,-0.01549 -0.04737,-0.01549 -0.09384,0 -0.151232,0.14121 l -0.107502,0.2642 q -0.04829,0.120257 -0.143943,0.120257 -0.03918,0 -0.06651,-0.02369 -0.02733,-0.02369 -0.02733,-0.05831 0,-0.02551 0.01458,-0.06104 l 0.01002,-0.0246 0.184029,-0.453695 q 0.03553,-0.08837 0.121168,-0.08837 0.07015,0 0.100214,0.06195 0.09748,-0.07471 0.185851,-0.07471 0.08564,0 0.14121,0.0492 0.05557,0.0492 0.05557,0.124812 0,0.04191 -0.02004,0.09201 z"
               id="path1780" />
            <path
               d="m 73.531161,88.09699 -0.01731,0.04191 q -0.04009,0.09019 -0.113879,0.09019 -0.03735,0 -0.06742,-0.02551 -0.02915,-0.02642 -0.02915,-0.06013 0,-0.03189 0.02642,-0.08473 l 0.121168,-0.24598 q 0.04464,-0.08837 0.111146,-0.08837 0.03553,0 0.06104,0.02369 0.02551,0.02278 0.02551,0.05466 0,0.0082 -0.0055,0.03553 -0.0036,0.02004 -0.0036,0.03553 0,0.0574 0.04282,0.117523 l 0.05193,0.07197 q 0.07926,0.110235 0.07926,0.213182 0,0.11479 -0.08564,0.192228 -0.08564,0.07653 -0.213182,0.07653 h -0.190406 q -0.115702,0 -0.115702,-0.08017 0,-0.05557 0.041,-0.08655 0.041,-0.03189 0.112968,-0.03189 h 0.10568 q 0.126634,0 0.126634,-0.09202 0,-0.03371 -0.02369,-0.07926 z"
               id="path1782" />
            <path
               d="m 74.334694,87.848278 h 0.02824 q 0.115701,0 0.115701,0.08108 0,0.05557 -0.041,0.08655 -0.041,0.03097 -0.112969,0.03097 h -0.06651 l -0.122079,0.299731 h 0.102036 q 0.115701,0 0.115701,0.08108 0,0.05557 -0.041,0.08655 -0.04009,0.03097 -0.112969,0.03097 H 74.03677 q -0.06924,0 -0.110235,-0.03189 -0.04009,-0.03189 -0.04009,-0.08655 0,-0.03371 0.0164,-0.0747 l 0.01731,-0.04009 0.107502,-0.265111 h -0.01367 q -0.102036,0 -0.102036,-0.07926 0,-0.05648 0.04009,-0.08746 0.041,-0.03189 0.113879,-0.03189 h 0.04191 l 0.04829,-0.119346 0.01002,-0.0246 q 0.04282,-0.101125 0.134833,-0.101125 0.03735,0 0.06377,0.02551 0.02733,0.0246 0.02733,0.06013 0,0.03462 -0.02369,0.08746 z"
               id="path1784" />
            <path
               d="m 75.062611,88.346614 h 0.100214 q 0.11479,0 0.11479,0.08017 0,0.05557 -0.041,0.08746 -0.041,0.03097 -0.112968,0.03097 h -0.116612 q -0.07835,0 -0.106592,-0.06104 -0.06833,0.06104 -0.1321,0.06104 h -0.103858 q -0.100214,0 -0.162164,-0.07106 -0.06104,-0.07197 -0.06104,-0.187674 0,-0.174918 0.120256,-0.312485 0.121168,-0.138477 0.273311,-0.138477 0.116612,0 0.170363,0.08108 0.04555,-0.06833 0.119346,-0.06833 0.04009,0 0.06651,0.02551 0.02733,0.02551 0.02733,0.06286 0,0.02551 -0.01458,0.06104 l -0.01002,0.0246 z m -0.330706,0.0046 h 0.02278 q 0.0747,0 0.0993,-0.06104 l 0.06377,-0.15761 q 0.01275,-0.03097 0.01275,-0.05193 0,-0.0246 -0.0246,-0.04282 -0.02369,-0.01822 -0.0574,-0.01822 -0.06651,0 -0.129367,0.07744 -0.06286,0.07744 -0.06286,0.160342 0,0.09384 0.07562,0.09384 z"
               id="path1786" />
            <path
               d="m 75.556392,88.346614 h 0.09566 q 0.115702,0 0.115702,0.08108 0,0.05557 -0.041,0.08655 -0.04008,0.03097 -0.112968,0.03097 H 75.4498 q -0.06742,0 -0.106591,-0.03189 -0.03918,-0.03189 -0.03918,-0.08564 0,-0.02824 0.02642,-0.09384 l 0.368058,-0.905569 0.01002,-0.0246 q 0.04191,-0.102036 0.133922,-0.102036 0.03826,0 0.06468,0.02551 0.02733,0.02551 0.02733,0.06104 0,0.02733 -0.01367,0.06195 l -0.01002,0.0246 z"
               id="path1788" />
            <path
               d="m 76.430075,88.346614 h 0.100214 q 0.11479,0 0.11479,0.08017 0,0.05557 -0.041,0.08746 -0.041,0.03097 -0.112968,0.03097 h -0.116612 q -0.07835,0 -0.106592,-0.06104 -0.06833,0.06104 -0.1321,0.06104 h -0.103858 q -0.100214,0 -0.162164,-0.07106 -0.06104,-0.07197 -0.06104,-0.187674 0,-0.174918 0.120256,-0.312485 0.121168,-0.138477 0.273311,-0.138477 0.116612,0 0.170364,0.08108 0.04555,-0.06833 0.119345,-0.06833 0.04009,0 0.06651,0.02551 0.02733,0.02551 0.02733,0.06286 0,0.02551 -0.01458,0.06104 l -0.01002,0.0246 z m -0.330706,0.0046 h 0.02278 q 0.0747,0 0.0993,-0.06104 l 0.06377,-0.15761 q 0.01275,-0.03097 0.01275,-0.05193 0,-0.0246 -0.0246,-0.04282 -0.02369,-0.01822 -0.0574,-0.01822 -0.0665,0 -0.129367,0.07744 -0.06286,0.07744 -0.06286,0.160342 0,0.09384 0.07562,0.09384 z"
               id="path1790" />
            <path
               d="m 77.305579,88.346614 h 0.103858 q 0.115702,0 0.115702,0.08108 0,0.05557 -0.041,0.08655 -0.041,0.03097 -0.112968,0.03097 h -0.12299 q -0.07106,0 -0.103858,-0.05831 -0.05831,0.05831 -0.124812,0.05831 H 76.90381 q -0.101125,0 -0.162164,-0.06924 -0.06013,-0.06924 -0.06013,-0.184029 0,-0.17583 0.119346,-0.31613 0.120257,-0.140299 0.269666,-0.140299 0.110236,0 0.17583,0.07926 l 0.203161,-0.498336 q 0.05193,-0.127545 0.144855,-0.127545 0.03917,0 0.0665,0.02551 0.02733,0.0246 0.02733,0.06104 0,0.02824 -0.01367,0.06377 l -0.01093,0.0246 z m -0.333439,0.0046 h 0.03462 q 0.06286,0 0.0829,-0.05011 l 0.06833,-0.168542 q 0.01275,-0.03097 0.01275,-0.04737 0,-0.02733 -0.02369,-0.04646 -0.02278,-0.01913 -0.05739,-0.01913 -0.07106,0 -0.133011,0.07926 -0.06104,0.07926 -0.06104,0.171275 0,0.08108 0.07653,0.08108 z"
               id="path1792" />
            <path
               d="m 77.98339,87.835523 q 0.1321,0 0.216826,0.08382 0.08564,0.08382 0.08564,0.213182 0,0.09748 -0.04464,0.194051 -0.04464,0.09566 -0.115702,0.153054 -0.04737,0.03735 -0.09839,0.05193 -0.05011,0.01367 -0.14121,0.01367 -0.148499,0 -0.200428,-0.03553 -0.122079,-0.08382 -0.122079,-0.247802 0,-0.173096 0.124812,-0.29973 0.124812,-0.126634 0.295176,-0.126634 z m -0.02187,0.194051 q -0.06742,0 -0.12299,0.06651 -0.05557,0.06651 -0.05557,0.146677 0,0.10568 0.118435,0.10568 0.06924,0 0.106591,-0.04282 0.06195,-0.07015 0.06195,-0.160342 0,-0.05193 -0.03006,-0.08382 -0.03006,-0.03189 -0.07835,-0.03189 z"
               id="path1794" />
            <path
               d="m 78.561897,88.047794 -0.03097,0.07653 q -0.04191,0.102036 -0.109324,0.102036 -0.041,0 -0.06833,-0.0246 -0.02733,-0.0246 -0.02733,-0.06104 0,-0.02095 0.02004,-0.07106 l 0.102947,-0.254179 q 0.03735,-0.09201 0.10568,-0.09201 0.06742,0 0.0829,0.06377 l 0.0073,0.02824 q 0.0055,0.02187 0.0164,0.02733 0.01093,0.0055 0.05375,0.0055 h 0.213182 q 0.119346,0 0.119346,0.08382 0,0.115701 -0.151232,0.115701 l -0.01002,0.0091 q -0.144854,0.138477 -0.144854,0.214093 0,0.07562 0.08382,0.07562 h 0.114791 q 0.115701,0 0.115701,0.08017 0,0.05648 -0.041,0.08746 -0.04008,0.03097 -0.112968,0.03097 H 78.72315 q -0.0911,0 -0.14941,-0.06286 -0.05739,-0.06286 -0.05739,-0.163075 0,-0.06377 0.03097,-0.123901 0.03098,-0.06013 0.109325,-0.147588 z"
               id="path1796" />
            <path
               d="m 79.718,88.346614 h 0.100214 q 0.114791,0 0.114791,0.08017 0,0.05557 -0.041,0.08746 -0.041,0.03097 -0.112968,0.03097 h -0.116613 q -0.07835,0 -0.106591,-0.06104 -0.06833,0.06104 -0.1321,0.06104 h -0.103858 q -0.100214,0 -0.162164,-0.07106 -0.06104,-0.07197 -0.06104,-0.187674 0,-0.174918 0.120257,-0.312485 0.121168,-0.138477 0.273311,-0.138477 0.116612,0 0.170363,0.08108 0.04555,-0.06833 0.119346,-0.06833 0.04009,0 0.06651,0.02551 0.02733,0.02551 0.02733,0.06286 0,0.02551 -0.01458,0.06104 l -0.01002,0.0246 z m -0.330705,0.0046 h 0.02278 q 0.0747,0 0.0993,-0.06104 l 0.06377,-0.15761 q 0.01275,-0.03097 0.01275,-0.05193 0,-0.0246 -0.0246,-0.04282 -0.02369,-0.01822 -0.05739,-0.01822 -0.0665,0 -0.129367,0.07744 -0.06286,0.07744 -0.06286,0.160342 0,0.09384 0.07562,0.09384 z"
               id="path1798" />
            <path
               d="m 80.270999,88.09699 -0.01731,0.04191 q -0.04009,0.09019 -0.113879,0.09019 -0.03735,0 -0.06742,-0.02551 -0.02915,-0.02642 -0.02915,-0.06013 0,-0.03189 0.02642,-0.08473 l 0.121168,-0.24598 q 0.04464,-0.08837 0.111146,-0.08837 0.03553,0 0.06104,0.02369 0.02551,0.02278 0.02551,0.05466 0,0.0082 -0.0055,0.03553 -0.0036,0.02004 -0.0036,0.03553 0,0.0574 0.04282,0.117523 l 0.05193,0.07197 q 0.07926,0.110235 0.07926,0.213182 0,0.11479 -0.08564,0.192228 -0.08564,0.07653 -0.213182,0.07653 h -0.190406 q -0.115702,0 -0.115702,-0.08017 0,-0.05557 0.041,-0.08655 0.041,-0.03189 0.112968,-0.03189 h 0.10568 q 0.126634,0 0.126634,-0.09202 0,-0.03371 -0.02369,-0.07926 z"
               id="path1800" />
         </g>
      </g>
   </g>
</svg>