<svg id="eyXuZREt7Vj1" xmlns="http://www.w3.org/2000/svg" xmlns:xlink="http://www.w3.org/1999/xlink"
    viewBox="0 0 210 297" shape-rendering="geometricPrecision" text-rendering="geometricPrecision">
    <style>
        <![CDATA[
        #eyXuZREt7Vj16_ts {
            animation: eyXuZREt7Vj16_ts__ts 10000ms linear 1 normal forwards
        }

        @keyframes eyXuZREt7Vj16_ts__ts {
            0% {
                transform: translate(-8.614227px, 95.571991px) rotate(-0.204317deg) scale(1, 1)
            }

            43% {
                transform: translate(-8.614227px, 95.571991px) rotate(-0.204317deg) scale(1, 1)
            }

            45% {
                transform: translate(-8.614227px, 95.571991px) rotate(-0.204317deg) scale(1.065528, 0.145615)
            }

            46% {
                transform: translate(-8.614227px, 95.571991px) rotate(-0.204317deg) scale(1, 1)
            }

            100% {
                transform: translate(-8.614227px, 95.571991px) rotate(-0.204317deg) scale(1, 1)
            }
        }

        #eyXuZREt7Vj20_ts {
            animation: eyXuZREt7Vj20_ts__ts 10000ms linear 1 normal forwards
        }

        @keyframes eyXuZREt7Vj20_ts__ts {
            0% {
                transform: translate(-12.410045px, 103.771812px) scale(1, 1)
            }

            23.8% {
                transform: translate(-12.410045px, 103.771812px) scale(1, 1)
            }

            27% {
                transform: translate(-12.410045px, 103.771812px) scale(0.345753, 0.100818)
            }

            30% {
                transform: translate(-12.410045px, 103.771812px) scale(1, 1)
            }

            100% {
                transform: translate(-12.410045px, 103.771812px) scale(1, 1)
            }
        }

        #eyXuZREt7Vj32_tr {
            animation: eyXuZREt7Vj32_tr__tr 10000ms linear 1 normal forwards
        }

        @keyframes eyXuZREt7Vj32_tr__tr {
            0% {
                transform: translate(80.821087px, 129.403502px) rotate(1.024486deg);
                animation-timing-function: cubic-bezier(0.42, 0, 0.58, 1)
            }

            12% {
                transform: translate(80.821087px, 129.403502px) rotate(-22.522653deg);
                animation-timing-function: cubic-bezier(0.42, 0, 0.58, 1)
            }

            15% {
                transform: translate(80.821087px, 129.403502px) rotate(5.793992deg)
            }

            100% {
                transform: translate(80.821087px, 129.403502px) rotate(5.793992deg)
            }
        }

        #eyXuZREt7Vj35_tr {
            animation: eyXuZREt7Vj35_tr__tr 10000ms linear 1 normal forwards
        }

        @keyframes eyXuZREt7Vj35_tr__tr {
            0% {
                transform: translate(16.401142px, 49.787572px) rotate(53.881237deg)
            }

            15% {
                transform: translate(16.401142px, 49.787572px) rotate(53.881237deg)
            }

            19% {
                transform: translate(16.401142px, 49.787572px) rotate(226.284777deg)
            }

            100% {
                transform: translate(16.401142px, 49.787572px) rotate(226.284777deg)
            }
        }

        #eyXuZREt7Vj86_tr {
            animation: eyXuZREt7Vj86_tr__tr 10000ms linear 1 normal forwards
        }

        @keyframes eyXuZREt7Vj86_tr__tr {
            0% {
                transform: translate(128.949732px, 142.445457px) rotate(0deg)
            }

            11% {
                transform: translate(128.949732px, 142.445457px) rotate(-3.314823deg)
            }

            15% {
                transform: translate(128.949732px, 142.445457px) rotate(2.605321deg)
            }

            100% {
                transform: translate(128.949732px, 142.445457px) rotate(2.605321deg)
            }
        }

        #eyXuZREt7Vj87_to {
            animation: eyXuZREt7Vj87_to__to 10000ms linear 1 normal forwards
        }

        @keyframes eyXuZREt7Vj87_to__to {
            0% {
                transform: translate(-32.037397px, -14.919687px);
                animation-timing-function: cubic-bezier(0.42, 0, 0.58, 1)
            }

            5% {
                transform: translate(-29.809236px, -14.801596px)
            }

            11% {
                transform: translate(-23.684738px, -15.046004px);
                animation-timing-function: cubic-bezier(0.42, 0, 0.58, 1)
            }

            13% {
                transform: translate(-31.520106px, -14.612011px)
            }

            15% {
                transform: translate(-34.030832px, -14.745242px)
            }

            100% {
                transform: translate(-34.030832px, -14.745242px)
            }
        }
        ]]>
    </style>
    <defs>
        <linearGradient id="eyXuZREt7Vj25-fill" x1="169.09587" y1="7.33959" x2="172.81078" y2="7.821636"
            spreadMethod="pad" gradientUnits="userSpaceOnUse" gradientTransform="translate(0 0)">
            <stop id="eyXuZREt7Vj25-fill-0" offset="0%" stop-color="#ecb132" />
            <stop id="eyXuZREt7Vj25-fill-1" offset="100%" stop-color="#ffd63c" />
        </linearGradient>
        <linearGradient id="eyXuZREt7Vj52-fill" x1="11.6391" y1="107.90489" x2="82.38754" y2="107.90489"
            spreadMethod="pad" gradientUnits="userSpaceOnUse" gradientTransform="translate(0 0)">
            <stop id="eyXuZREt7Vj52-fill-0" offset="0%" stop-color="#008041" />
            <stop id="eyXuZREt7Vj52-fill-1" offset="100%" stop-color="#12fff3" />
        </linearGradient>
    </defs>
    <g>
        <g transform="matrix(1.65718 0 0 1.65718-49.2358-83.7727)">
            <g transform="matrix(.999966 0.008232-.008232 0.999966 140.339-8.75076)">
                <g transform="matrix(.998926-.046334 0.046334 0.998926-28.0135-7.43471)">
                    <path
                        d="M20.955002,117.00164c.03848.43283-2.14556-5.76814-6.665316-3.77119-1.787204.78965-5.037114,3.73497-6.981582,4.07737-2.888518.50867-3.343348-4.47185-5.402228-5.59561-2.832151-1.54583-3.229021-.41213-3.254801-.55926-.025989-.14832.685683-1.32151,3.518271.19964c2.020169,1.08487,2.323659,5.80649,5.180235,5.30348c1.74394-.30698,5.008783-3.04001,6.691672-3.71205c4.938889-1.97231,6.896705,3.86614,6.913749,4.05762Z"
                        fill="#3c1f1b" stroke-width="0.280627" />
                    <path
                        d="M15.326026,136.83175c-2.019698,1.21445,4.216764-6.1611-1.535949-7.85055-4.01447-1.17897-11.999098-1.91393-15.511397-7.31563-1.521573-2.34008-3.594201-5.36694-3.757125-8.38811-.093372-1.73055-.588961-5.57962,1.145804-5.53347c1.731086.046,6.05751,3.04179,6.73307,5.75245.774284,3.10678,1.046505,6.86836,3.644945,7.87043c1.532097.59084,3.917746-.16519,5.29534-.81402c2.730241-1.28592,5.057844-1.00895,6.941374-.0142c1.073999.56721,3.616172,2.72558,4.211243,5.36641c1.05417,4.67824.328967,4.93488-.974245,6.99342s-6.19306,3.93327-6.19306,3.93327Z"
                        fill="#3c1f1b" stroke-width="0.264583" />
                </g>
                <g transform="translate(-16.9075 1.42726)">
                    <path
                        d="M-7.448264,113.14126c.018769,1.92608,3.342969,1.470764,3.247097,2.356504-.374543,3.46027-5.259627,4.466836-7.681452,4.475476-1.277192.005-4.867199-.070465-6.688014-1.711635-1.296415-1.16853-1.167453-2.160371-1.488985-3.253961-.302379-1.02842,2.663066-.535714,2.585624-1.786734-.624584-10.08973.58442-7.74354,5.135856-7.98015c7.495718-.3897,4.804413-.85729,4.889874,7.9005Z"
                        fill="#ff9d80" stroke-width="0.264583" />
                    <path
                        d="M-6.761202,103.97592c-.000001,3.788098-2.752047,6.859054-6.147071,6.8594s-6.147574-3.070052-6.148193-6.85815s2.750925-6.859611,6.145948-6.860649s6.148077,3.0688,6.149315,6.856899l-6.147631.002Z"
                        transform="matrix(.999992-.003956 0.003215 0.999995 0 0)" fill="#3b1f1b"
                        stroke-width="0.246251" />
                    <ellipse rx="2.97337" ry="3.41063"
                        transform="matrix(.999994-.003566 0.003566 0.999994-24.727859 98.569406)" fill="#ff9d80"
                        stroke-width="0.078645" />
                    <ellipse rx="2.44865" ry="3.41063"
                        transform="matrix(.999994-.003566 0.003566 0.999994-2.164497 98.751346)" fill="#fe7e57"
                        stroke-width="0.071369" />
                    <path
                        d="M-3.204678,97.451117c.011017,3.089463-1.37136,5.787783-2.958109,7.989333-1.737246,2.41035-3.804948,4.18283-6.6321,4.19291-2.604634.009-4.119447-1.79215-5.881041-3.76977-1.896936-2.12956-3.943339-4.55811-3.955305-7.913784-.02308-6.471939,4.343383-11.734123,9.752769-11.753413s9.650707,4.782785,9.673786,11.254724Z"
                        fill="#ff9d80" stroke-width="0.264583" />
                    <path
                        d="M-16.366698,77.519697c-2.487564.02847-5.389477,1.662239-7.474997,4.470014-2.966049,3.993282-1.217598,16.017784,1.681041,14.276646c3.471925-2.085504,3.714223-2.866153,7.271386-6.34328.597192-.583753,1.10875-1.241392,1.534278-1.940964-.167288.740991-.391696,1.614027-.658358,2.267562-.409722,1.004098-.91872,1.487736-1.572006,1.893938s-1.451097.73515-1.254184.704867s1.388931-.420075,2.211755-1.101744s1.276465-1.655452,1.489313-2.629298c.11288-.516445.157821-1.032009.173119-1.475876.737988,1.201166,1.640541,2.313714,2.634979,3.186373c2.753755,2.416506,4.066906,1.130295,6.518469,4.536674c1.9752,2.744484,2.345675-7.874404.179314-12.105206-1.262692-2.465983-2.659764-3.333317-5.148008-4.782653-1.729704-1.007508-3.342363-.628645-4.524267.07904-.07253-.06344-.147444-.124405-.225318-.181388-.810119-.592785-1.786212-.866746-2.836516-.85473Z"
                        fill="#3c1f1b" stroke-width="0.247499" />
                    <ellipse rx="0.582799" ry="1.1656"
                        transform="matrix(.999994-.003566 0.003566 0.999994-16.074622 95.423729)" fill="#3c1f1b"
                        stroke-width="0.264583" />
                    <g id="eyXuZREt7Vj16_ts" transform="translate(-8.614227,95.571991) rotate(-0.204317) scale(1,1)">
                        <ellipse rx="0.582799" ry="1.1656" transform="translate(0.000002,0.000035)" fill="#3c1f1b"
                            stroke-width="0.264583" />
                    </g>
                    <path
                        d="M-14.688656,93.725816c-.4737.283941-.324685-.345655-1.276708-.34226s-1.539544.719595-1.611878.32619c-.04202-.228661.657785-.905591,1.609799-.908986s1.416813.842313,1.278787.925056Z"
                        fill="#3c1f1c" stroke-width="0.264583" />
                    <path
                        d="M-10.06142,93.822935c.475703.280556.322211-.347961,1.274225-.351356s1.544647.708587,1.614173.314676c.040384-.228955-.664227-.900867-1.616251-.897472s-1.41076.852396-1.272147.934152Z"
                        fill="#3c1f1c" stroke-width="0.264583" />
                    <path
                        d="M-11.348343,98.036331c.0038,1.068914-.786937,1.412856-.901996,1.413246s.726772-.452155.72296-1.521058c-.0015-.424477-.363788-1.005469-.542188-1.310885-.09528-.163161-.178636-.295815-.243605-.399224-.11965-.190464-.118433-.50812-.07351-.508271.0347-.000133.04875.294868.156778.422504.07662.09053.170962.210722.282185.357116.252055.331753.597492,1.028556.599339,1.546573Z"
                        fill="#3c1f1b" stroke-width="0.264583" />
                    <g id="eyXuZREt7Vj20_ts" transform="translate(-12.410045,103.771812) scale(1,1)">
                        <path
                            d="M-9.151018,103.8106c.00303.85041-1.39991,1.5448-3.133579,1.55099-1.733639.006-3.381443-1.56502-3.384475-2.41542s1.750321-1.21432,4.116147.10409c1.296986.72277,2.398874-.09,2.401907.76034Z"
                            transform="translate(12.410045,-103.771812)" fill="#fff" stroke-width="0.194826" />
                    </g>
                    <ellipse rx="2.2388" ry="2.46399"
                        transform="matrix(.999994-.003566 0.003566 0.999994-23.705067 102.996187)" fill="#f0f"
                        stroke-width="0.217715" />
                    <ellipse rx="2.2388" ry="2.46399"
                        transform="matrix(.999994-.003566 0.003566 0.999994-1.910319 102.917467)" fill="#f0f"
                        stroke-width="0.217715" />
                </g>
            </g>
            <g transform="matrix(.999956-.009387 0.009387 0.999956-30.5947 56.8574)">
                <g transform="translate(-33.104 9.89821)">
                    <path
                        d="M185.75719,11.852528c0,7.846287-5.00711.473568-13.08224.473566s-13.08225,8.083069-13.08225.236782s4.62174-13.322586,12.69688-13.322584s13.46761,4.765949,13.46761,12.612236Z"
                        fill="url(#eyXuZREt7Vj25-fill)" stroke-width="0.532692" stroke-dasharray="2.13078,2.13078" />
                    <path
                        d="M186.77586,15.224612c1.35673,1.241828-4.68119.02976-13.82116.02976-5.06957,0-16.14643,1.644863-14.56307.571493c2.19881-1.490589,4.63627-3.609736,13.09903-3.706032c9.50641-.108169,14.29829,2.20144,14.86419,2.719423Z"
                        fill="#ecb133" stroke-width="0.258544" stroke-dasharray="1.03419,1.03419" />
                    <path
                        d="M171.59538,-1.521268l2.47752.01253c.15603.000789.63362.404506.62386.641416l-.43563,10.570264c-.01.236909-.082.663748-.238.661232l-2.28318-.03681c-.15602-.0025-.14555-.351131-.16156-.587609l-.702-10.364057c-.016-.23648.38865-.898634.71899-.896964Z"
                        fill="#ecb133" stroke-width="0.3797" stroke-dasharray="1.5188,1.5188" />
                    <path
                        d="M183.38274,9.888859l1.47194.4014c.0927.02528.33818.244671.30978.326945l-1.26701,3.670869c-.0284.08228-.11206.221752-.20457.195869l-1.35407-.378848c-.0926-.02589-.053-.147574-.04-.233835l.57093-3.780176c.0129-.08629.31678-.255744.51304-.202224Z"
                        fill="#ecb133" stroke-width="0.180387" stroke-dasharray="0.72155,0.72155" />
                    <path
                        d="M160.33895,10.408169l1.45679-.453332c.0917-.02855.41669.02436.437.109l.90636,3.776125c.0203.08464.0248.247216-.0671.275155l-1.34528.408944c-.092.02798-.12406-.0959-.1595-.175614l-1.55196-3.493868c-.0355-.07968.1295-.385987.32374-.446432Z"
                        fill="#ffd42a" stroke-width="0.180387" stroke-dasharray="0.72155,0.72155" />
                </g>
            </g>
            <g transform="matrix(.999989-.004661 0.004661 0.999989 55.632-38.79)">
                <g transform="matrix(.999757-.022052 0.022052 0.999757-68.5378 62.8923)">
                    <g id="eyXuZREt7Vj32_tr" transform="translate(80.821087,129.403502) rotate(1.024486)">
                        <g transform="translate(-26.773487,-93.242102)">
                            <path
                                d="M-130.40932,146.0901c-.21483,4.17428-1.31982,4.66539-2.57827,4.97235s-2.67038.42975-4.14371.21495-3.00805-.7673-4.42008-2.05641-2.7012-3.31493-3.80628-6.16959-2.02592-6.53796-2.97748-11.69478-1.93378-11.78677-2.42492-16.79008-.49114-8.37969-.76738-12.09379-.82874-7.765745-1.13571-10.589699-.36835-4.420057,1.59617-6.814439s5.95479-5.586586,8.04213-7.059777s2.27152-1.227634,2.8854-.153286s1.65748,2.977392,2.36349,4.174487s1.07434,1.688207,1.59603.951438s1.19695-2.701201,1.90303-3.837019s1.44275-1.442761,2.08743-1.411932s1.19718.399156,1.47329.890312.2761,1.10504-.0616,2.087211-1.01295,2.332717-1.62685,3.898204-1.1664,3.345754-1.50404,4.727064-.46041,2.363525-.61389,3.161569-.33765,1.411929-.42971,2.240749-.0921,1.872424.21491,5.187539.92086,8.901459,1.50407,13.659209s1.13571,8.68662,1.74959,14.57993s1.28919,13.7515,1.07436,17.92579Z"
                                transform="matrix(.813185 0.005748-.005147 0.728284 137.445-10.3227)" fill="#ff9d80"
                                stroke-width="0.414999" stroke-dasharray="1.66,1.66" />
                            <path
                                d="M-140.18207,85.5941c-.58419.211474-1.91389.916617-2.94146,1.934119s-1.75284,2.347175-1.98446,3.4453.0303,1.964423.23169,2.286649.34243.100612.35255-.37273-.11076-1.198619.0907-2.054972.72524-1.843532,1.53118-2.679704s1.89386-1.521159,2.51836-2.004623.78567-.765514.20148-.554039Z"
                                transform="matrix(.813185 0.005748-.005147 0.728284 137.445-10.3227)" fill="#a40"
                                stroke-width="0.414999" stroke-dasharray="1.66,1.66" />
                            <g id="eyXuZREt7Vj35_tr" transform="translate(16.401142,49.787572) rotate(53.881237)">
                                <g transform="translate(62.285727,-38.528566)">
                                    <path
                                        d="M-62.997705,9.40201l2.80758,5.036902c.579536,1.03955.601719,2.1241.04961,2.431893l-5.029151,2.803446c-.552107.307793-1.463233-.281299-2.042769-1.320849l-2.804997-5.031735c-1.453256,2.449324-1.494783,5.486567-.109037,7.974708.781485,1.401559,1.966406,2.535706,3.400826,3.255098-.0047.08966-.0078.180444-.0078.272852v29.40699c0,.02514.0017.04947.0021.07441-3.668539,2.23519-4.916882,6.968715-2.827735,10.722343c1.388026,2.490062,3.996261,4.053349,6.846611,4.103626l-2.807581-5.036902c-.579535-1.03955-.601719-2.1241-.04961-2.431893l5.02915-2.803963c.552108-.307793,1.463234.281299,2.04277,1.320849l2.804996,5.031734c1.452896-2.449285,1.494227-5.486274.108521-7.97419-.764525-1.369221-1.914613-2.483548-3.307292-3.204455v-29.208549c0-.215051-.01467-.422412-.03927-.620634c3.637441-2.249799,4.861934-6.962695,2.779675-10.698572-1.388159-2.489862-3.996368-4.052937-6.84661-4.103109Z"
                                        fill="#9cc1f2" stroke-width="0.497064" stroke-dasharray="1.98827,1.98827" />
                                    <rect width="4.01958" height="25.1756" rx="1.973815" ry="2.041502"
                                        transform="translate(-64.8548 27.0598)" fill="#5e90c7" stroke-width="0.501364"
                                        stroke-dasharray="2.00545,2.00545" />
                                    <circle r="2" transform="translate(-62.8372 23.9985)" fill="#5e90c7"
                                        stroke-width="0.414999" stroke-dasharray="1.66,1.66" />
                                    <circle r="2" transform="translate(-62.7524 55.1203)" fill="#5e90c7"
                                        stroke-width="0.414999" stroke-dasharray="1.66,1.66" />
                                </g>
                            </g>
                            <g transform="matrix(.727248-.475077 0.518585 0.633561 63.1647-64.2829)">
                                <path
                                    d="M-121.22774,75.565413c-1.06527,0-1.9275.847182-1.96939,1.915129-.1441-.922933-.95892-1.625741-1.94872-1.625741h-.17777c-.94106,0-1.72318.635611-1.92184,1.491382-.33667-.543353-.97975-.909505-1.72135-.909505h-.17725c-1.09219,0-1.97145.793697-1.97145,1.77922v5.919535c0,.985522.87926,1.778703,1.97145,1.778703h.17725c.80845,0,1.50018-.434837,1.80506-1.060401.28515.716976.99839,1.223182,1.83813,1.223182h.17777c1.00906,0,1.83586-.730556,1.95595-1.680001.095,1.015092.93405,1.804024,1.96216,1.804024h.17776c.99069,0,1.80621-.732395,1.94924-1.693954.0494,1.015382.90867,1.818494,1.96887,1.818494h.17777c1.09219,0,1.97145-.852335,1.97145-1.910994v-6.358785c0-1.05866-.87926-1.910995-1.97145-1.910995h-.17777c-.98586,0-1.79781.69438-1.94665,1.608171v-.191203c0-1.105984-.87926-1.996261-1.97146-1.996261Z"
                                    fill="#ff7e61" stroke-width="0.414999" stroke-dasharray="1.66,1.66" />
                                <rect width="2.93745" height="2.02725" rx="0.895781" ry="1.013625"
                                    transform="translate(-130.654 82.7036)" fill="#f0f" stroke-width="0.414999"
                                    stroke-dasharray="1.66,1.66" />
                                <rect width="2.93745" height="2.02725" rx="0.895781" ry="1.013625"
                                    transform="translate(-126.786 83.1794)" fill="#f0f" stroke-width="0.414999"
                                    stroke-dasharray="1.66,1.66" />
                                <rect width="2.93745" height="2.02725" rx="0.895781" ry="1.013625"
                                    transform="translate(-122.525 83.3035)" fill="#f0f" stroke-width="0.414999"
                                    stroke-dasharray="1.66,1.66" />
                                <rect width="2.93745" height="2.02725" rx="0.895781" ry="1.013625"
                                    transform="translate(-118.553 83.3449)" fill="#f0f" stroke-width="0.414999"
                                    stroke-dasharray="1.66,1.66" />
                            </g>
                        </g>
                    </g>
                </g>
                <g transform="matrix(.813185 0.005748-.005147 0.728284 126.53 87.1243)">
                    <g>
                        <path
                            d="M-130.09169,123.79964c.69546.86556,1.92325,2.46169,3.55014,3.93501s3.65271,2.82387,5.27956,3.71398s2.85461,1.31983,3.68335,1.53464s1.25846.21481,1.2276.89018-.52196,2.02593-1.96463,4.23593-3.83683,5.27943-5.86266,7.36665-3.68333,3.19222-5.06457,3.99029-2.48624,1.28917-3.74469,1.59613-2.67038.42975-4.14371.21495-3.00805-.7673-4.42008-2.05641-2.7012-3.31493-1.01301-7.2748s6.35374-9.85322,8.72556-13.22493s2.44991-4.22198,2.52178-4.81128.13752-.91756.2521-1.0142.27779.0383.97326.90386Z"
                            fill="#ff9d80" stroke-width="0.414999" stroke-dasharray="1.66,1.66" />
                        <path
                            d="M-132.24412,126.07902c.0757.0589.37054,1.61658,1.04787,3.21979s1.73696,3.25187,2.13693,4.18203.14047,1.14212-.12976.97744-.55137-.7064-1.02715-1.69563-1.14615-2.42591-1.55315-3.86427-.55044-2.87825-.47474-2.81936Z"
                            fill="#a40" stroke-width="0.475944" stroke-dasharray="1.90378,1.90378" />
                    </g>
                </g>
            </g>
            <g transform="translate(160.426 7.19714)">
                <g transform="translate(-96.4649 43.5359)">
                    <path
                        d="M11.86705,82.196573c.552286-2.713963,2.137384-6.98892,3.890616-10.831635s3.674527-7.253012,5.331782-9.222445s3.050187-2.497789,5.764121-3.290344s6.748645-1.849266,8.910181-2.377606s2.449735-.528341,2.689793.04822.432187,1.729328.960695,2.521814s1.393092,1.224779,2.834101,1.657034s3.458367.864543,5.23552.76841s3.314195-.720559,4.346816-1.561067s1.560979-1.89722,1.873199-2.497653.408292-.744542,2.089665-.408293s4.947563,1.152799,7.397274,1.969414s4.082807,1.633164,5.451745,2.545852s2.47368,1.921367,3.530346,3.698656s2.06534,4.322991,2.978009,6.268345s1.729218,3.290255,2.785992,4.683215s2.353645,2.833928,3.218226,3.86666s1.296871,1.657151,1.224688,2.4496-.648569,1.753086-2.449805,3.434223-4.827263,4.08275-7.46905,5.667842-4.899305,2.353608-6.148115,2.617946-1.488974.02417-1.657231.624595-.264323,2.04139-.240289,4.10686.168131,4.755267.624477,8.021587s1.22486,7.10888,1.969408,10.06295s1.46503,5.01945,2.08947,6.77268s1.152794,3.19419,1.729156,6.84476s1.200783,9.5105,1.416909,14.19375.024,8.1896.00001,10.42318.12011,3.19422-4.394994,3.74646-13.689264.69633-21.110445.72035-13.088991-.072-17.580124-.16811-7.805354-.19214-9.582688-.79241-2.017492-1.70502-2.065562-4.27486.09602-6.60455.432255-11.74417.864587-11.38381,1.72918-15.94705s2.0654-7.44517,3.266243-10.37522s2.401644-5.90805,3.218219-8.28569s1.248866-4.15482,1.344969-6.14817-.144059-4.202833-.360163-5.547754-.408233-1.825242-.792548-1.84943-.960703.408104-2.377567.04794-3.674378-1.512936-5.763858-2.881864-4.01077-2.953997-5.211679-4.322913-1.681233-2.521694-1.128947-5.235658Z"
                        fill="url(#eyXuZREt7Vj52-fill)" stroke-width="0.264583" />
                    <path
                        d="M64.933743,93.000908c-.06331-.0211.611987-3.27095.696452-5.950992s-.421996-4.790294-.97062-6.330819-1.139496-2.511241-1.16053-2.848956.527632-.04228,1.139503,1.519438s1.287153,4.389456,1.223775,7.407149-.865273,6.225276-.92858,6.20418Z"
                        fill="#2b0000" stroke-width="0.414999" stroke-dasharray="1.66,1.66" />
                    <path
                        d="M26.582682,94.69747c.06331-.0211-.611987-3.27095-.696452-5.950992s.421996-4.790294.97062-6.330819s1.139496-2.511241,1.16053-2.848956-.527632-.04228-1.139503,1.519438-1.287153,4.389456-1.223775,7.407149.865273,6.225276.92858,6.20418Z"
                        fill="#2b0000" stroke-width="0.414999" stroke-dasharray="1.66,1.66" />
                    <path
                        d="M52.519921,65.109434c-.01045-.06591-3.327003.0685-5.984742-.286714s-4.656676-1.200157-6.086663-1.993467-2.290934-1.535058-2.620656-1.61107-.128047.513601,1.312498,1.372774s4.119672,1.988062,7.107061,2.419333s6.282955.165049,6.272502.09914Z"
                        fill="#2b0000" stroke-width="0.414999" stroke-dasharray="1.66,1.66" />
                    <path
                        d="M23.852689,92.434046c-1.102889-.363864-3.308872-1.091658-5.03096-2.119568s-2.960249-2.356057-3.827369-3.487619-1.363097-2.066552-1.57359-2.224773-.135368.460287.732236,1.657855s2.527434,2.974228,4.459956,4.160368s4.137645,1.78189,5.240132,2.079745s1.102484.297855-.000405-.06601Z"
                        fill="#2b0000" stroke-width="0.337305" stroke-dasharray="1.34922,1.34922" />
                </g>
                <g>
                    <path
                        d="M-71.695221,154.75674c0,0,13.049961,1.20923,19.887267,1.20987s21.118898-1.20987,21.118898-1.20987l1.398931,6.38263c0,0-15.601771.88373-22.896966.78592-7.554698-.10128-21.633029-1.40588-21.633029-1.40588Z"
                        fill="#1a1a1a" stroke-width="0.414999" stroke-dasharray="1.66,1.66" />
                    <circle r="5" transform="translate(-51.95 158.778)" fill="#f95" stroke-width="0.414999"
                        stroke-dasharray="1.66,1.66" />
                </g>
            </g>
            <g transform="translate(96.3436 4.99281)">
                <g transform="translate(-70.2662 5.39973)">
                    <path
                        d="M64.77817,142.64518c-.08228-2.74091-.638256-6.80256-1.072647-9.8664s-.747151-5.12956-.701051-6.97261.45114-3.46321,1.220744-5.52903s1.903721-4.57707,2.511311-6.21748.688597-2.40997,2.774794-2.73413s6.177117-.20265,9.72133-.12164s6.541523.12152,8.78955.0607s3.746677-.22279,5.549171-.42532s3.908705-.44556,5.427602.56726s2.450496,3.28105,3.402366,5.63037s1.92398,4.77958,2.38972,6.7238.42524,3.40236.0809,4.94151-.99238,3.15932-1.43792,5.28591-.68857,4.75935-.72906,7.45299.12154,5.44791.89118,9.19469s2.14679,8.48577,3.09871,11.30087s1.47847,3.7062,1.96446,6.11627.93154,6.33899,1.31633,10.83508.70883,9.55913.78982,13.04255-.081,5.38713-2.14669,6.44013-6.03507,1.25552-14.764029,1.46707-22.216605.4321-29.760082.19837-9.142013-.92186-9.608005-3.4827.200968-6.99425.68909-12.34104.797355-11.60652,2.004157-17.1501s3.311081-10.37026,4.610337-13.39024s1.793344-4.23292,2.236082-5.54944.834095-2.73658.75182-5.47749Z"
                        fill="#6290cc" stroke-width="0.264583" />
                    <g transform="translate(115.565-52.9913)">
                        <path d="M-46.332981,150.47262l4.888606-1.05264-.421056,11.96581-4.46755.0526Z" fill="#6290cc"
                            stroke-width="0.264583" />
                        <rect width="5.47373" height="2.78949" rx="0.4" ry="0.4" transform="translate(-46.7129 160.922)"
                            fill="#6c5353" stroke-width="0.264583" />
                        <ellipse rx="1.3158" ry="1.28948" transform="translate(-44.0286 163.738)" fill="#fcb32e"
                            stroke-width="0.264583" />
                        <rect width="1.89475" height="1.84212" rx="0.5" ry="0.5" transform="translate(-44.976 164.08)"
                            fill="#6c5353" stroke-width="0.264583" />
                    </g>
                    <g transform="matrix(.999581 0.028944-.028944 0.999581 118.172-52.5677)">
                        <path d="M-15.426923,150.95362l-4.720684-.89417.287055,11.09858l4.46755.0526Z" fill="#6290cc"
                            stroke-width="0.264583" />
                        <rect width="5.47373" height="2.78949" rx="0.4" ry="0.4"
                            transform="matrix(-1 0 0 1-15.0131 160.695)" fill="#6c5353" stroke-width="0.264583" />
                        <ellipse rx="1.3158" ry="1.28948" transform="matrix(-1 0 0 1-17.6973 163.51)" fill="#fcb32e"
                            stroke-width="0.264583" />
                        <rect width="1.89475" height="1.84212" rx="0.5" ry="0.5"
                            transform="matrix(-1 0 0 1-16.75 163.852)" fill="#6c5353" stroke-width="0.264583" />
                    </g>
                    <path
                        d="M72.37075,124.76873h22.35522c.2216,0,.4.1784.4.4v24.0614c0,.22159-.1784.4-.4.4l-11.54321,4.63104-10.81201-4.63104c-.2037-.0873-.4-.17841-.4-.4v-24.0614c0-.2216.1784-.4.4-.4Z"
                        fill="#6290cc" stroke="#3a4e7c" stroke-width="0.5" />
                    <path
                        d="M74.16048,127.59563h19.02665c.1886,0,.34044.14422.34044.32336v19.45071c0,.17914-.15184.32337-.34044.32337l-9.82449,3.74363-9.20216-3.74363c-.17337-.0706-.34044-.14422-.34044-.32337v-19.45071c0-.17914.15184-.32336.34044-.32336Z"
                        fill-opacity="0" stroke="#3a4e7c" stroke-width="0.415" stroke-dasharray="1.66,1.66" />
                    <rect width="0.695993" height="11.9875" rx="0.316564" ry="0.455002"
                        transform="matrix(.147269 0.989096-.989096 0.147269 69.424996 163.737159)" fill="#3a4e7c"
                        stroke-width="0.222275" stroke-dasharray="0.889104,0.889104" />
                    <rect width="0.690498" height="12.1663" rx="0.314065" ry="0.46179"
                        transform="matrix(-.095014 0.995476-.966611-.256248 108.383445 166.66493)" fill="#3a4e7c"
                        stroke-width="0.223041" stroke-dasharray="0.892169,0.892169" />
                    <g transform="translate(-73.4949 4.00362)">
                        <rect width="0.695993" height="11.9875" rx="0.316564" ry="0.455002"
                            transform="translate(155.145 183.882)" fill="#3a4e7c" stroke-width="0.222275"
                            stroke-dasharray="0.889104,0.889104" />
                        <rect width="0.695993" height="11.9875" rx="0.316564" ry="0.455002"
                            transform="matrix(.481689 0.876342-.876342 0.481689 165.686022 178.262388)" fill="#3a4e7c"
                            stroke-width="0.222275" stroke-dasharray="0.889104,0.889104" />
                        <rect width="0.695993" height="11.9875" rx="0.316564" ry="0.455002"
                            transform="matrix(-.411423 0.911445-.911445-.411423 155.883399 184.146122)" fill="#3a4e7c"
                            stroke-width="0.222275" stroke-dasharray="0.889104,0.889104" />
                        <rect width="0.695993" height="11.9875" rx="0.316564" ry="0.455002"
                            transform="matrix(.147269 0.989096-.989096 0.147269 155.192592 184.128584)" fill="#3a4e7c"
                            stroke-width="0.222275" stroke-dasharray="0.889104,0.889104" />
                    </g>
                </g>
                <g>
                    <path
                        d="M-11.545824,166.23732c0,0,14.857999,1.43335,22.012573.50673s24.11793-5.9551,24.11793-5.9551l2.007294,6.30873c0,0-17.987838,4.77969-25.843529,5.73555s-24.444941-.00043-24.444941-.00043Z"
                        fill="#782121" stroke-width="0.414999" stroke-dasharray="1.66,1.66" />
                    <rect width="6.73877" height="7.45567" rx="1.710443" ry="1.269044"
                        transform="matrix(.996909-.078561 0.078561 0.996909 7.479563 166.310413)" fill="#f60"
                        stroke-width="0.414999" stroke-dasharray="1.66,1.66" />
                </g>
            </g>
            <g transform="matrix(.989435-.144975 0.144975 0.989435-19.727569-4.44368)">
                <g id="eyXuZREt7Vj86_tr" transform="translate(128.949732,142.445457) rotate(0)">
                    <path
                        d="M128.12332,184.93559c.36836,2.4554,2.00519,6.50655,2.844,9.20732s.87974,4.05112,1.30948,4.56246s1.24814.18399,2.4962-.57305s2.92577-1.94372,4.7672-3.45779s3.84652-3.35547,5.3401-5.48331s2.47567-4.54211,2.94629-6.64948.4297-3.90784.0819-6.05619-1.00251-4.64447-1.86184-7.20204-1.92324-5.17644-2.61884-6.67007-1.02296-1.86192-2.83714-1.36739-5.11494,1.85212-7.52937,3.30488-3.94218,3.00041-4.82886,3.89705-1.1322,1.14216-.82517,1.77658s1.16636,1.65743,1.90289,2.80324s1.35034,2.41432,1.82097,3.25319.798,1.24807.51142,1.92313-1.18681,1.61622-2.08707,2.51648-1.80051,1.75958-1.43216,4.21499Z"
                        transform="translate(-128.949732,-142.445457)" fill="#ffa285" stroke-width="0.414999"
                        stroke-dasharray="1.66,1.66" />
                </g>
                <g id="eyXuZREt7Vj87_to" transform="translate(-32.037397,-14.919687)">
                    <g transform="rotate(0.018286) translate(0,0)">
                        <path
                            d="M96.434147,235.11651c-.188221-.0841-.39172-.13006-.604274-.13006l-7.013001.00002c-.971677,0-1.753765.95811-1.753765,2.14829c0,1.00291.555842,1.84054,1.312032,2.07947-.698075.28316-1.19908,1.08639-1.19908,2.03881c0,1.06907.631318,1.9506,1.463975,2.119-.8186.18247-1.435765,1.05587-1.435765,2.11278c0,1.13226.708113,2.05351,1.613624,2.1406-.823913.14387-1.454685,1.03831-1.454685,2.12762c0,1.19018.752866,2.14841,1.688067,2.14841l6.74897-.00011c.935201,0,1.688283-.95803,1.688283-2.14821c0-1.07789-.617573-1.96545-1.428789-2.12333.930043-.0563,1.665052-.99177,1.665052-2.14542c0-1.06863-.630876-1.94967-1.463029-2.11859.81813-.18293,1.434612-1.05622,1.434612-2.11272c0-1.00313-.555592-1.84075-1.312032-2.07948.69818-.28308,1.19908-1.08629,1.19908-2.0388c0-.92983-.47706-1.71793-1.149275-2.01828Z"
                            transform="matrix(.958154-.286254 0.286254 0.958154 0.000001 0)" fill="#fd7e60"
                            stroke-width="0.367814" stroke-dasharray="1.47126,1.47126" />
                        <rect width="6.20956" height="0.166683" rx="0.442524" ry="0.166683"
                            transform="matrix(.958154-.286254 0.286254 0.958154 153.135549 203.822548)" fill="#d35f5f"
                            stroke-width="0.21345" stroke-dasharray="0.853802,0.853802" />
                        <rect width="6.20956" height="0.166683" rx="0.442524" ry="0.166683"
                            transform="matrix(.958154-.286254 0.286254 0.958154 156.202427 211.612627)" fill="#d35f5f"
                            stroke-width="0.21345" stroke-dasharray="0.853802,0.853802" />
                        <rect width="6.20956" height="0.166683" rx="0.442524" ry="0.166683"
                            transform="matrix(.958154-.286254 0.286254 0.958154 154.377872 207.746114)" fill="#d35f5f"
                            stroke-width="0.21345" stroke-dasharray="0.853802,0.853802" />
                        <rect width="1.41332" height="2.26988" rx="0.442524" ry="0.540367"
                            transform="matrix(.958154-.286254 0.286254 0.958154 151.710423 201.033797)" fill="#f0f"
                            stroke-width="0.414999" stroke-dasharray="1.66,1.66" />
                        <rect width="1.41332" height="2.26988" rx="0.442524" ry="0.472255"
                            transform="matrix(.958154-.286254 0.286254 0.958154 155.763847 213.030505)" fill="#f0f"
                            stroke-width="0.414999" stroke-dasharray="1.66,1.66" />
                        <rect width="1.54181" height="2.74098" rx="0.442524" ry="0.559562"
                            transform="matrix(.958154-.286254 0.286254 0.958154 154.341419 208.718229)" fill="#f0f"
                            stroke-width="0.414999" stroke-dasharray="1.66,1.66" />
                        <rect width="1.54181" height="2.74098" rx="0.442524" ry="0.460783"
                            transform="matrix(.958154-.286254 0.286254 0.958154 153.191144 204.793254)" fill="#f0f"
                            stroke-width="0.414999" stroke-dasharray="1.66,1.66" />
                    </g>
                </g>
                <path
                    d="M131.8526,177.58606c-.30051-.0679,1.20189-.56578,2.77946-.85996s3.23016-.38471,4.98301-.0452s3.60576,1.109,4.40684,1.72001.55068,1.06362-.1753.90527-1.92788-.9278-3.255-1.42577-2.77942-.72428-4.55731-.65643-3.88119.42994-4.1817.36204Z"
                    fill-opacity="0" stroke-width="0.436526" stroke-dasharray="1.74611,1.74611" />
            </g>
        </g>
    </g>
</svg>